<svg xmlns="http://www.w3.org/2000/svg" viewBox="0 0 33 42" height="42"
                    width="33">
                    <g fill-rule="evenodd" fill="none">
                        <path d="M0 0h33v42H0z"></path>
                        <path fill="#000" class="fill"
                            d="M15.902 12.734c-.04 0-.082-.04-.103-.02a.225.225 0 0 0-.13.04s.04.33.145.43l.102.104c.204.205.41.41.39.676l-.02.226c-.207.984-1.294 1.702-1.294 2.727 0 .615.265 1.087.593 1.415.143.144.307.267.45.37.144.184.267.348.267.553l-.02.226c-.203.99-1.29 1.708-1.29 2.73 0 .62.266 1.09.594 1.42.145.142.31.265.453.37.165.162.267.346.288.53l-.04.246c-.205.985-1.292 1.703-1.272 2.708 0 .657.246 1.108.595 1.457.515.51 1.21.76 1.5.964.1.06.183.103.265.103.082 0 .144-.02.185-.06.063-.063.063-.145.063-.227a.57.57 0 0 0-.083-.25c-.204-.286-.37-.532-.37-.942.023-.924 1.274-1.15 1.294-2.77 0-.574-.266-1.004-.635-1.374-.126-.122-.25-.245-.37-.327-.167-.247-.27-.47-.27-.8 0-.944 1.25-1.17 1.25-2.77.02-.594-.265-1.046-.634-1.415a2.443 2.443 0 0 0-.35-.307c-.165-.247-.288-.45-.267-.8 0-.944 1.25-1.17 1.27-2.75 0-.574-.265-1.046-.634-1.415-.658-.656-1.62-1.004-1.93-1.066">
                        </path>
                    </g>
                </svg>