<svg xmlns="http://www.w3.org/2000/svg" viewBox="0 0 53 42" height="42"
                    width="53">
                    <g fill-rule="evenodd" fill="none">
                        <path d="M0 0h53v42H0z"></path>
                        <path fill="#000" class="fill"
                            d="M37.616 8.998c0 .352-.022.616-.286.77-.264.176-.616.198-.924.264-.396.11-.924.198-1.21.506a1.48 1.48 0 0 0-.462 1.1c0 .176.022.374.066.528-.022.154-.088.286-.264.418-.286.154-.638.176-.924.264-.044 0-.066.022-.11.022-.022 0-.066.022-.088.022-.022 0-.044.022-.066.022-.022 0-.066.022-.088.022-.022 0-.044.022-.066.022-.022 0-.044.022-.066.022-.264.088-.572.176-.748.352a1.54 1.54 0 0 0-.44 1.1c0 .198.022.374.066.55-.022.154-.11.286-.286.396-.264.176-.616.176-.924.264-.396.088-.902.198-1.21.484a1.54 1.54 0 0 0-.44 1.1c0 .154 0 .308.044.462-.022.198-.066.374-.286.506-.286.176-.638.198-.924.286-.044 0-.066.022-.11.022-.022 0-.066.022-.088.022-.022 0-.044.022-.066.022-.022 0-.066.022-.088.022-.022 0-.044.022-.066.022-.022 0-.044.022-.066.022-.022 0-.066.022-.088.022-.022 0-.022.022-.044.022-.22.088-.462.154-.616.308a1.54 1.54 0 0 0-.44 1.1c0 .088 0 .198.022.286 0 .286 0 .528-.286.726-.286.154-.638.176-.924.264-.44.088-.924.198-1.232.484-.352.352-.44.726-.44 1.078 0 .198.022.396.066.572a.622.622 0 0 1-.286.396c-.264.176-.616.176-.924.264-.396.088-.902.198-1.21.484-.352.374-.462.748-.462 1.122 0 .176.022.352.066.528a.52.52 0 0 1-.264.396c-.264.176-.616.198-.924.264-.396.11-.924.198-1.21.506a1.513 1.513 0 0 0-.462 1.1c0 .154.022.308.044.44 0 .22-.066.374-.286.528-.264.176-.616.176-.924.264-.396.088-.902.198-1.21.506a1.48 1.48 0 0 0-.462 1.1c0 .55.242 1.034.286 1.298.022.198.132.286.22.286.11 0 .22-.11.242-.264.066-.286.11-.484.33-.704.484-.484 1.276.066 2.156-.792.308-.286.418-.682.418-1.056 0-.132-.022-.286-.044-.418.044-.198.11-.374.308-.572.484-.484 1.276.066 2.156-.77.286-.286.396-.682.396-1.056 0-.154-.022-.33-.044-.484.066-.176.132-.33.286-.484.484-.484 1.276.066 2.156-.792.308-.308.418-.682.418-1.078 0-.154-.022-.308-.044-.44a.964.964 0 0 1 .264-.484c.506-.506 1.298.066 2.156-.792.308-.308.418-.704.418-1.1 0-.11 0-.198-.022-.308.044-.264.11-.462.308-.66.506-.506 1.298.066 2.156-.792.33-.308.418-.704.418-1.1 0-.132 0-.264-.022-.374.044-.22.11-.396.286-.572.484-.484 1.276.066 2.156-.792.308-.308.418-.682.418-1.056 0-.154-.022-.308-.044-.462a.964.964 0 0 1 .264-.484c.506-.506 1.298.066 2.156-.792.308-.308.418-.682.418-1.078 0-.154-.022-.308-.044-.462a1 1 0 0 1 .264-.462c.506-.506 1.298.044 2.178-.814.308-.286.396-.682.396-1.056 0-.704-.352-1.43-.462-1.606-.044-.088-.088-.132-.132-.132-.088 0-.154.198-.154.33z">
                        </path>
                    </g>
                </svg>