<svg xmlns="http://www.w3.org/2000/svg" viewBox="0 0 40 42"
                                height="42" width="40">
                                <g fill-rule="evenodd" fill="none">
                                    <path d="M0 0h40v42H0z"></path>
                                    <path class="fill" fill="#000"
                                        d="M23.162 19.204c-.682 0-1.232.308-1.232.968 0 .484.33.792.792.792.638 0 .66-.506 1.122-.506.374 0 .726.462.726 1.034 0 .946-.66 1.408-1.43 1.408-.704 0-1.43-.594-2.376-1.65-1.078-1.188-2.046-2.024-3.476-2.024-1.452 0-2.288 1.1-2.288 2.508C15 23.318 16.012 24 16.958 24c.682 0 1.232-.308 1.232-.968 0-.484-.33-.792-.792-.792-.638 0-.66.506-1.122.506-.374 0-.726-.462-.726-1.034 0-.946.66-1.408 1.43-1.408.704 0 1.43.594 2.376 1.65 1.078 1.188 2.046 2.024 3.476 2.024 1.452 0 2.288-1.1 2.288-2.508 0-1.584-1.012-2.266-1.958-2.266z">
                                    </path>
                                </g>
                            </svg>