<svg xmlns="http://www.w3.org/2000/svg" viewBox="0 0 45 42"
                                height="42" width="45">
                                <g fill-rule="evenodd" fill="none">
                                    <path d="M0 0h45v42H0z"></path>
                                    <path fill="#000" class="fill"
                                        d="M22.56 20.32v-2.7h-.62V21l-.58.68c-.06.04-.1.1-.14.16-.72-.84-1.94-2.24-2.04-2.38-.16-.16-.28-.34-.62-.36-.18 0-.28.06-.44.18-.18.14-.32.32-.46.5l-.08.08c-.54.6-1.08 1.2-1.6 1.82l-.72.84c-.12.12-.26.32-.26.46 0 .12.1.2.4.2.32 0 .6-.28.8-.48.26-.22.5-.46.78-.68.2-.16.34-.26.44-.26.1 0 .18.08.3.24l1.74 1.86c.08.1.24.14.4.14.14 0 .28-.04.36-.12.2-.12 1.36-1.18 1.68-1.46v3.04h.64v-3.58c.08-.06.16-.1.24-.1.1 0 .2.06.32.22.08.12 1.56 1.66 1.74 1.86.08.1.24.14.38.14.16 0 .3-.04.38-.12.16-.12 3.42-3.68 3.68-3.98l.04-.06c.12-.12.24-.26.24-.4 0-.06-.02-.12-.1-.18-.14-.1-.28-.16-.42-.16-.14 0-.26.06-.36.14-.22.18-1.6 1.9-1.84 2.12-.16.14-.26.2-.36.2-.14 0-.26-.1-.36-.2-.16-.16-1.48-1.8-1.68-1.98-.18-.16-.34-.28-.5-.28-.16 0-.26.04-.44.18-.18.14-.32.34-.46.5l-.48.54z">
                                    </path>
                                </g>
                            </svg>