<svg xmlns="http://www.w3.org/2000/svg" viewBox="0 0 39 42"
                                height="42" width="39">
                                <g fill-rule="evenodd" fill="none">
                                    <path d="M0 0h39v42H0z"></path>
                                    <path fill="#000" class="fill"
                                        d="M21.04 18.472v-1.18L18 17.92v-2.5l3.04-.628v-1.23L18 14.2v-2.5l3.04-.638V9.5h.6v1.436L24 10.44v2.5l-2.36.496v1.232L24 14.18v2.5l-2.36.488v1.18L24 17.86v2.5l-2.36.488v5.212c0 1.9-2.46 3.76-4.46 3.76-1.22 0-2.18-.7-2.18-1.88 0-1.94 1.98-3.76 4.44-3.76.66 0 1.22.18 1.6.52v-3.728L18 21.6v-2.5l3.04-.628z">
                                    </path>
                                </g>
                            </svg>