<?xml version="1.0" encoding="UTF-8" standalone="no"?>
<!-- Created with Inkscape (http://www.inkscape.org/) -->

<svg viewBox="0 0 43 42" height="42" width="43"
                    xmlns="http://www.w3.org/2000/svg">
                    <g fill-rule="evenodd" fill="none">
                        <path d="M0 0h43v42H0z"></path>
                        <path
                            d="M21.852 16c-.088 0-.22.044-.286.066l-1.078.352c-.198.066-.286.132-.374.352l-.792 1.936c-.088.22-.11.264-.176.264-.088 0-.22-.11-.418-.198a2.252 2.252 0 0 0-.924-.198c-1.034 0-1.804.616-1.804 1.54 0 .682.462 1.254 1.452 1.254.264 0 .55-.044.682-.044.044 0 .066.022.066.066 0 .044-.022.11-.066.22l-.242.594c-.242.594-.418 1.034-.418 1.496 0 .616.418 1.1 1.254 1.1 1.144 0 2.244-.924 2.244-2.552 0-.528-.088-1.012-.286-1.496-.044-.11-.066-.154-.066-.22 0-.132.132-.242.484-.44l.132-.066c.77-.462 1.298-.77 1.716-.77.198 0 .286.066.286.33 0 .22-.066.484-.132.638L21.5 24.206a.668.668 0 0 0-.066.242c0 .088.066.132.242.132h1.078c.198 0 .264-.044.352-.264l1.43-3.564c.286-.726.99-1.54 1.474-1.54.132 0 .22.044.22.132 0 .198-.484.264-.484.88 0 .44.33.704.792.704.528 0 .924-.44.924-1.21 0-.638-.33-1.166-1.144-1.166-.572 0-1.034.308-1.364.682-.198.22-.22.308-.308.308-.11 0-.022-.154-.198-.484-.154-.286-.484-.484-.968-.484-.88 0-1.716.44-2.178.682-.286.154-.418.242-.528.242-.044 0-.066-.022-.066-.066 0-.088.066-.22.11-.33l1.1-2.728a.668.668 0 0 0 .066-.242c0-.088-.044-.132-.132-.132zm-4.048 3.08c.264 0 .594.088.836.22.198.11.286.198.286.308 0 .066-.044.176-.088.286l-.088.22c-.11.286-.198.352-.484.418s-.55.11-.77.11c-.726 0-.902-.352-.902-.66 0-.396.33-.902 1.21-.902zm2.354 1.826c.066 0 .066.066.11.176 0 .374.198.792.198 1.188 0 .968-.594 1.848-1.232 1.848-.176 0-.242-.11-.242-.264 0-.176.088-.462.176-.682 0-.022.022-.022.858-2.112.044-.11.066-.154.132-.154z"
                            fill="#000" class="fill"></path>
                    </g>
                </svg>