<svg xmlns="http://www.w3.org/2000/svg" viewBox="0 0 51 42" height="42"
                    width="51">
                    <g fill-rule="evenodd" fill="none">
                        <path d="M0 0h51v42H0z"></path>
                        <path fill="#000" class="fill"
                            d="M27.936 16.96c-.154 0-.22 0-.22-.11 0-.066.022-.132.044-.264.44-1.914.77-3.08 1.628-3.08.11 0 .176.022.176.088 0 .154-.396.242-.396.836 0 .638.396.902.924.902.594 0 .968-.396.968-1.122 0-.572-.44-1.21-1.694-1.21-2.156 0-3.19 1.496-3.916 3.63-.11.33-.132.33-.44.33h-2.354c-.154 0-.22 0-.22-.11 0-.066.022-.132.044-.264.44-1.914.77-3.08 1.628-3.08.11 0 .176.022.176.088 0 .154-.396.242-.396.836 0 .638.396.902.924.902.594 0 .968-.396.968-1.122 0-.572-.44-1.21-1.694-1.21-2.156 0-3.19 1.496-3.916 3.63-.11.33-.132.33-.44.33h-1.276c-.242 0-.352.11-.352.352 0 .22.11.33.33.33h1.276c.132 0 .176 0 .176.088 0 .044-.022.11-.044.22l-1.386 4.818c-.616 2.156-1.012 2.86-1.892 2.86-.286 0-.396-.088-.396-.198 0-.176.198-.066.528-.286a.962.962 0 0 0 .44-.814c0-.572-.396-.902-.99-.902-.66 0-1.144.528-1.144 1.21 0 .968.726 1.474 1.65 1.474 1.672 0 2.706-1.122 3.916-3.608.638-1.342 1.122-2.706 1.65-4.554 0-.022.022-.044.022-.066 0-.044.176-.242.286-.242h2.464c.132 0 .176 0 .176.088 0 .044-.022.11-.044.22l-1.386 4.818c-.616 2.156-1.012 2.86-1.892 2.86-.176 0-.22-.044-.22-.11 0-.088.088-.132.33-.286.264-.176.374-.418.374-.77 0-.528-.374-.858-.902-.858-.682 0-1.078.462-1.078 1.144 0 .858.66 1.364 1.584 1.364 1.672 0 2.706-1.122 3.916-3.608.638-1.342 1.122-2.706 1.65-4.554 0-.022.022-.044.022-.066 0-.044.176-.242.286-.242h2.464c.132 0 .176 0 .176.088 0 .044-.022.11-.044.22l-1.386 4.818c-.616 2.156-1.012 2.86-1.892 2.86-.176 0-.22-.044-.22-.11 0-.088.088-.132.33-.286.264-.176.374-.418.374-.77 0-.528-.374-.858-.902-.858-.682 0-1.078.462-1.078 1.144 0 .858.66 1.364 1.584 1.364 1.672 0 2.706-1.122 3.916-3.608.638-1.342 1.122-2.706 1.65-4.554 0-.022.022-.044.022-.066 0-.044.176-.242.286-.242h1.43c.242 0 .352-.11.352-.352 0-.22-.11-.33-.33-.33h-1.32c-.154 0-.22 0-.22-.11 0-.066.022-.132.044-.264.44-1.914.924-3.08 2.024-3.08.176 0 .352.044.352.176s-.11.11-.352.22c-.286.132-.462.44-.462.836 0 .616.44.924.99.924.572 0 1.078-.374 1.078-1.188S36.164 13 34.778 13c-2.134 0-3.322 1.518-4.048 3.63-.11.33-.132.33-.44.33h-2.354z">
                        </path>
                    </g>
                </svg>