<svg xmlns="http://www.w3.org/2000/svg" viewBox="0 0 48 42" height="42"
                    width="48">
                    <g fill-rule="evenodd" fill="none">
                        <path d="M0 0h48v42H0z"></path>
                        <path fill="#000" class="fill"
                            d="M23.514 16.454c-.638 0-1.144.308-1.496.682-.22.22-.242.308-.33.308-.11 0-.044-.176-.176-.462-.132-.286-.418-.528-.968-.528-.638 0-1.144.308-1.496.682-.22.22-.242.308-.33.308-.11 0-.044-.154-.176-.462-.132-.286-.44-.506-.858-.506-1.166 0-1.848.946-2.53 2.178-.11.198-.154.308-.154.418 0 .154.11.242.242.242.154 0 .22-.11.33-.286.66-1.122 1.1-1.716 1.496-1.716.176 0 .242.11.242.264 0 .176-.066.396-.132.55l-1.606 3.982a.668.668 0 0 0-.066.242c0 .088.066.132.242.132h1.078c.198 0 .264-.044.352-.264l1.43-3.564c.264-.638.726-1.1 1.21-1.1.264 0 .33.132.33.308 0 .264-.088.506-.22.814 0 .022-.022.022-1.386 3.432a.668.668 0 0 0-.066.242c0 .088.066.132.242.132h1.078c.198 0 .264-.044.352-.264l1.43-3.564c.264-.638.726-1.1 1.21-1.1.264 0 .33.132.33.308 0 .77-1.364 3.036-1.364 3.96 0 .572.352.88.99.88.836 0 1.606-.616 2.31-1.782.132-.22.198-.352.198-.462 0-.132-.088-.198-.198-.198-.154 0-.22.11-.33.286-.418.66-.836 1.188-1.122 1.188-.132 0-.176-.066-.176-.198 0-.77 1.276-2.684 1.276-3.894 0-.55-.286-1.188-1.188-1.188zm2.266.506c-.242 0-.352.11-.352.352 0 .22.11.33.33.33h1.276c.132 0 .176 0 .176.088 0 .044-.022.11-.044.22l-1.386 4.818c-.616 2.156-1.012 2.86-1.892 2.86-.286 0-.396-.088-.396-.198 0-.176.198-.066.528-.286a.962.962 0 0 0 .44-.814c0-.572-.396-.902-.99-.902-.66 0-1.144.528-1.144 1.21 0 .968.726 1.474 1.65 1.474 1.672 0 2.706-1.122 3.916-3.608.638-1.342 1.122-2.706 1.65-4.554 0-.022.022-.044.022-.066 0-.044.176-.242.286-.242h1.43c.242 0 .352-.11.352-.352 0-.22-.11-.33-.33-.33h-1.32c-.154 0-.22 0-.22-.11 0-.066.022-.132.044-.264.44-1.914.924-3.08 2.024-3.08.176 0 .352.044.352.176s-.11.11-.352.22c-.286.132-.462.44-.462.836 0 .616.44.924.99.924.572 0 1.078-.374 1.078-1.188S32.93 13 31.544 13c-2.134 0-3.322 1.518-4.048 3.63-.11.33-.132.33-.44.33H25.78z">
                        </path>
                    </g>
                </svg>