<svg xmlns="http://www.w3.org/2000/svg" viewBox="0 0 48 42" height="42"
                    width="48">
                    <g fill-rule="evenodd" fill="none">
                        <path d="M0 0h48v42H0z"></path>
                        <path fill="#000" class="fill"
                            d="M25.208 19.124c-.616 1.342-1.166 2.156-1.606 2.156-.132 0-.176-.066-.176-.198 0-.77 1.276-2.684 1.276-3.894 0-.55-.286-1.188-1.188-1.188-.638 0-1.144.308-1.496.682-.22.22-.242.308-.33.308-.11 0-.044-.176-.176-.462-.132-.286-.418-.528-.968-.528-.638 0-1.144.308-1.496.682-.22.22-.242.308-.33.308-.11 0-.044-.154-.176-.462-.132-.286-.44-.506-.858-.506-1.166 0-1.848.946-2.53 2.178-.11.198-.154.308-.154.418 0 .154.11.242.242.242.154 0 .22-.11.33-.286.66-1.122 1.1-1.716 1.496-1.716.176 0 .242.11.242.264 0 .176-.066.396-.132.55l-1.606 3.982a.668.668 0 0 0-.066.242c0 .088.066.132.242.132h1.078c.198 0 .264-.044.352-.264l1.43-3.564c.264-.638.726-1.1 1.21-1.1.264 0 .33.132.33.308 0 .264-.088.506-.22.814 0 .022-.022.022-1.386 3.432a.668.668 0 0 0-.066.242c0 .088.066.132.242.132h1.078c.198 0 .264-.044.352-.264l1.43-3.564c.264-.638.726-1.1 1.21-1.1.264 0 .33.132.33.308 0 .77-1.364 3.036-1.364 3.96 0 .572.352.88.99.88 1.386 0 2.266-1.21 2.948-2.772.66-1.496 1.232-2.618 1.804-2.618.176 0 .22.11.22.264 0 .176-.066.396-.132.55l-2.706 6.71c-.066.176-.11.22-.33.22h-.682c-.198 0-.286.088-.286.286 0 .176.088.264.264.264h4.246c.198 0 .286-.088.286-.286 0-.176-.088-.264-.264-.264h-.88c-.132 0-.198 0-.198-.066 0-.022.022-.088.044-.154l.99-2.464c.044-.11.088-.264.198-.264.11 0 .176.22.528.396.308.154.594.198.968.198 2.112 0 3.828-2.2 3.828-4.29 0-1.276-.792-1.958-2.024-1.958-.682 0-1.166.22-1.562.572-.308.264-.374.44-.462.44-.11 0-.044-.154-.242-.528-.154-.264-.484-.462-1.056-.462-1.65 0-2.354 1.562-2.882 2.75l-.154.352zm4.048 2.376c-.374 0-.55-.242-.55-.704 0-.462.176-.902.418-1.518l.44-1.078c.308-.748.88-1.386 1.408-1.386.374 0 .506.33.506.814 0 1.078-1.166 3.872-2.222 3.872z">
                        </path>
                    </g>
                </svg>