<svg viewBox="0 0 52 42" height="42" width="52"
                    xmlns="http://www.w3.org/2000/svg">
                    <g fill-rule="evenodd" fill="none">
                        <path d="M0 0h52v42H0z"></path>
                        <path
                            d="M21.314 14.79c-1.32.022-2.332.154-3.586.77-1.1.55-2.728 1.782-2.728 3.542 0 .968.572 2.156 1.87 2.156 1.012 0 1.804-1.166 1.804-2.508 0-.594-.11-.704-.242-.704-.176 0-.198.198-.308.572-.088.33-.352 1.056-1.012 1.056-.638 0-.814-.572-.814-1.056v-.088c.066-2.068 2.222-3.168 4.092-3.168.176 0 .308.022.308.154 0 .176-.198.44-.33.66-.088.132-.704 1.144-1.034 1.87-.154.352-.154.506-.154.616 0 .572.902 1.562 1.21 1.98.286.396.902.99.902 1.716 0 .44-.132.726-.462 1.166-.286.396-.308.418-.726.572-.968.352-2.86 1.562-2.86 2.464 0 .374.374.616.748.616.66 0 1.276-.682 2.244-1.826l.308-.374c.11-.132.198-.264.374-.264.88 0 1.21 2.354 2.376 2.354.374 0 .66-.066 1.342-.704l.572-.55c.088-.088.176-.176.264-.176.044 0 .066.044.154.22.33.704.88 1.276 1.738 1.276.682 0 1.298-.33 2.09-1.144.374-.396.528-.616.638-.616.088 0 .132.11.22.264.418.814 1.144 1.43 2.288 1.43 1.32 0 2.706-1.32 2.706-3.85 0-1.98-.77-4.136-3.41-5.522-1.21-.638-2.42-1.166-4.796-1.65a2.18 2.18 0 0 0-.396-.044c-.22 0-.286.132-.286.264 0 .154.132.264.506.352 2.134.506 3.586 1.254 4.422 1.914 1.848 1.43 2.332 3.146 2.332 5.082 0 1.518-.264 2.794-1.078 2.794-.726 0-1.21-1.43-1.21-2.904 0-1.298.198-2.266.902-2.97.132-.132.154-.198.154-.286 0-.132-.088-.242-.242-.242-.11 0-.264.044-.506.176-1.078.594-1.804 1.672-1.804 3.52v.396c0 .462-.044.616-.484 1.056-.682.682-1.012.792-1.386.792-.308 0-.616-.198-.946-.748a2.283 2.283 0 0 1-.22-.462c-.022-.088-.044-.154-.044-.22s.044-.11.198-.22l.22-.154c1.012-.726 2.09-1.474 2.09-2.728 0-.858-.572-1.342-1.43-1.342-.77 0-1.43.308-1.848.792-.616.704-.88 1.562-.88 2.816 0 .308.022.638.088.99v.088c0 .066-.022.11-.132.198-.352.242-.572.352-.88.352-.506 0-.902-.374-1.276-.748s-.726-.572-1.078-.66c-.242-.066-.374-.044-.374-.132 0-.066.044-.132.154-.286.33-.462.66-1.034.902-1.54.132-.286.22-.528.22-.88 0-.704-.462-1.122-1.232-2.024-.638-.748-.924-1.188-.924-1.65 0-.286.242-.946.506-1.386.352-.594.682-.66.924-.66.726 0 1.254.22 1.76.814.33.374.506.88.506 1.32 0 .484-.308.748-.704.748-.374 0-.682-.11-.968-.418-.132-.132-.22-.308-.418-.308-.132 0-.22.11-.22.286 0 .506.77 2.024 2.2 2.024 1.012 0 1.65-.814 1.65-1.782 0-.814-.242-1.364-.66-1.826-.946-1.034-2.156-1.408-3.762-1.408h-.132zm6.138 6.05c.352 0 .506.308.506.924 0 .726-.374 1.254-1.034 1.782-.11.088-.198.132-.242.132-.044 0-.088-.044-.088-.154a9.611 9.611 0 0 1-.044-.836c0-.968.242-1.848.902-1.848zm9.02 4.268c-.55 0-.946.396-.946.946 0 .55.396.946.946.946.55 0 .946-.396.946-.946 0-.55-.396-.946-.946-.946z"
                            fill="#000" class="fill"></path>
                    </g>
                </svg>