<svg xmlns="http://www.w3.org/2000/svg" viewBox="0 0 49 42" height="42"
                    width="49">
                    <g fill-rule="evenodd" fill="none">
                        <path d="M0 0h49v42H0z"></path>
                        <path fill="#000"
                            d="M21.4 19.172c.308-.748.88-1.386 1.408-1.386.374 0 .506.33.506.814 0 1.078-1.166 3.872-2.222 3.872-.374 0-.55-.242-.55-.704 0-.462.176-.902.418-1.518l.44-1.078zm-4.686 6.182c-.066.176-.11.22-.33.22h-.682c-.198 0-.286.088-.286.286 0 .176.088.264.264.264h4.246c.198 0 .286-.088.286-.286 0-.176-.088-.264-.264-.264h-.88c-.132 0-.198 0-.198-.066 0-.022.022-.088.044-.154l.99-2.464c.044-.11.088-.264.198-.264.11 0 .176.22.528.396.308.154.594.198.968.198 2.112 0 3.828-2.2 3.828-4.29 0-1.276-.792-1.958-2.024-1.958-.682 0-1.166.22-1.562.572-.308.264-.374.44-.462.44-.11 0-.044-.154-.242-.528-.154-.264-.484-.462-1.056-.462-1.298 0-2.002.924-2.684 2.178-.11.198-.154.308-.154.418 0 .154.11.242.242.242.154 0 .242-.132.352-.33.638-1.1 1.078-1.672 1.474-1.672.176 0 .242.11.242.264 0 .176-.066.396-.132.55l-2.706 6.71zm9.57-8.162c-.242 0-.352.11-.352.352 0 .22.11.33.33.33h1.276c.132 0 .176 0 .176.088 0 .044-.022.11-.044.22L26.284 23c-.616 2.156-1.012 2.86-1.892 2.86-.286 0-.396-.088-.396-.198 0-.176.198-.066.528-.286a.962.962 0 0 0 .44-.814c0-.572-.396-.902-.99-.902-.66 0-1.144.528-1.144 1.21 0 .968.726 1.474 1.65 1.474 1.672 0 2.706-1.122 3.916-3.608.638-1.342 1.122-2.706 1.65-4.554 0-.022.022-.044.022-.066 0-.044.176-.242.286-.242h1.43c.242 0 .352-.11.352-.352 0-.22-.11-.33-.33-.33h-1.32c-.154 0-.22 0-.22-.11 0-.066.022-.132.044-.264.44-1.914.924-3.08 2.024-3.08.176 0 .352.044.352.176s-.11.11-.352.22c-.286.132-.462.44-.462.836 0 .616.44.924.99.924.572 0 1.078-.374 1.078-1.188s-.506-1.474-1.892-1.474c-2.134 0-3.322 1.518-4.048 3.63-.11.33-.132.33-.44.33h-1.276z"
                            class="fill"></path>
                    </g>
                </svg>