<svg xmlns="http://www.w3.org/2000/svg" viewBox="0 0 56 42" height="42"
                    width="56">
                    <g fill-rule="evenodd" fill="none">
                        <path d="M0 0h56v42H0z"></path>
                        <path fill="#000" class="fill"
                            d="M22.986 16c-.682 0-1.166.22-1.562.572-.308.264-.374.44-.462.44-.11 0-.044-.154-.242-.528-.154-.264-.484-.462-1.056-.462-1.298 0-2.002.924-2.684 2.178-.11.198-.154.308-.154.418 0 .154.11.242.242.242.154 0 .242-.132.352-.33.638-1.1 1.078-1.672 1.474-1.672.176 0 .242.11.242.264 0 .176-.066.396-.132.55l-2.706 6.71c-.066.176-.11.22-.33.22h-.682c-.198 0-.286.088-.286.286 0 .176.088.264.264.264h4.246c.198 0 .286-.088.286-.286 0-.176-.088-.264-.264-.264h-.88c-.132 0-.198 0-.198-.066 0-.022.022-.088.044-.154l.99-2.464c.044-.11.088-.264.198-.264.11 0 .176.22.528.396.308.154.594.198.968.198 2.112 0 3.828-2.2 3.828-4.29 0-1.276-.792-1.958-2.024-1.958zm7.81 0c-.682 0-1.166.22-1.562.572-.308.264-.374.44-.462.44-.11 0-.044-.154-.242-.528-.154-.264-.484-.462-1.056-.462-1.056 0-1.628.572-2.112 1.254-.132.198-.176.308-.176.418 0 .154.11.22.242.22.154 0 .242-.11.352-.264 0 0 .044-.088.088-.132.22-.286.506-.66.836-.66.176 0 .242.11.242.264 0 .176-.066.396-.132.55l-2.706 6.71c-.066.176-.11.22-.33.22h-.682c-.198 0-.286.088-.286.286 0 .176.088.264.264.264h4.246c.198 0 .286-.088.286-.286 0-.176-.088-.264-.264-.264h-.88c-.132 0-.198 0-.198-.066 0-.022.022-.088.044-.154l.99-2.464c.044-.11.088-.264.198-.264.11 0 .176.22.528.396.308.154.594.198.968.198 2.112 0 3.828-2.2 3.828-4.29 0-1.276-.792-1.958-2.024-1.958zm7.81 0c-.682 0-1.166.22-1.562.572-.308.264-.374.44-.462.44-.11 0-.044-.154-.242-.528-.154-.264-.484-.462-1.056-.462-1.056 0-1.628.572-2.112 1.254-.132.198-.176.308-.176.418 0 .154.11.22.242.22.154 0 .242-.11.352-.264 0 0 .044-.088.088-.132.22-.286.506-.66.836-.66.176 0 .242.11.242.264 0 .176-.066.396-.132.55l-2.706 6.71c-.066.176-.11.22-.33.22h-.682c-.198 0-.286.088-.286.286 0 .176.088.264.264.264h4.246c.198 0 .286-.088.286-.286 0-.176-.088-.264-.264-.264h-.88c-.132 0-.198 0-.198-.066 0-.022.022-.088.044-.154l.99-2.464c.044-.11.088-.264.198-.264.11 0 .176.22.528.396.308.154.594.198.968.198 2.112 0 3.828-2.2 3.828-4.29 0-1.276-.792-1.958-2.024-1.958zm-16.214.814c.374 0 .506.33.506.814 0 1.078-1.166 3.872-2.222 3.872-.374 0-.55-.242-.55-.704 0-.462.176-.902.418-1.518l.44-1.078c.308-.748.88-1.386 1.408-1.386zm7.81 0c.374 0 .506.33.506.814 0 1.078-1.166 3.872-2.222 3.872-.374 0-.55-.242-.55-.704 0-.462.176-.902.418-1.518l.44-1.078c.308-.748.88-1.386 1.408-1.386zm7.81 0c.374 0 .506.33.506.814 0 1.078-1.166 3.872-2.222 3.872-.374 0-.55-.242-.55-.704 0-.462.176-.902.418-1.518l.44-1.078c.308-.748.88-1.386 1.408-1.386z">
                        </path>
                    </g>
                </svg>