<svg xmlns="http://www.w3.org/2000/svg" viewBox="0 0 46 42" height="42"
                    width="46">
                    <g fill-rule="evenodd" fill="none">
                        <path d="M0 0h46v42H0z"></path>
                        <path fill="#000" class="fill"
                            d="M18.234 16.762c-1.298 0-2.2.66-2.2 1.826 0 .77.418 1.188 1.188 1.716.638.44.836.726.836 1.166 0 .484-.418.99-1.122.99-.55 0-.924-.176-.924-.33 0-.11.132-.066.374-.22.198-.132.308-.352.308-.638 0-.44-.374-.726-.792-.726-.528 0-.902.44-.902 1.034 0 .726.748 1.408 1.914 1.408 1.43 0 2.53-.77 2.53-2.046 0-.616-.22-1.078-1.078-1.716-.792-.594-1.056-.836-1.056-1.254 0-.352.264-.726.946-.726.374 0 .682.088.682.242 0 .088-.11.088-.264.198-.132.11-.22.286-.22.528 0 .44.33.704.77.704.528 0 .814-.418.814-.836 0-.814-.682-1.32-1.804-1.32zm2.288.198c-.242 0-.352.11-.352.352 0 .22.11.33.33.33h1.276c.132 0 .176 0 .176.088 0 .044-.022.11-.044.22l-1.386 4.818c-.616 2.156-1.012 2.86-1.892 2.86-.286 0-.396-.088-.396-.198 0-.176.198-.066.528-.286a.962.962 0 0 0 .44-.814c0-.572-.396-.902-.99-.902-.66 0-1.144.528-1.144 1.21 0 .968.726 1.474 1.65 1.474 1.672 0 2.706-1.122 3.916-3.608.638-1.342 1.122-2.706 1.65-4.554 0-.022.022-.044.022-.066 0-.044.176-.242.286-.242h1.43c.242 0 .352-.11.352-.352 0-.22-.11-.33-.33-.33h-1.32c-.154 0-.22 0-.22-.11 0-.066.022-.132.044-.264.44-1.914.924-3.08 2.024-3.08.176 0 .352.044.352.176s-.11.11-.352.22c-.286.132-.462.44-.462.836 0 .616.44.924.99.924.572 0 1.078-.374 1.078-1.188S27.672 13 26.286 13c-2.134 0-3.322 1.518-4.048 3.63-.11.33-.132.33-.44.33h-1.276zm10.318-.088c-.176 0-.286.066-.528.132a3.75 3.75 0 0 1-.902.11c-1.32 0-1.958-.198-2.222-.198-.22 0-.33.088-.396.286l-.528 1.54a1.086 1.086 0 0 0-.066.33c0 .154.11.22.242.22.154 0 .242-.132.33-.33l.22-.462c.066-.132.11-.264.242-.264.088 0 .462.066 1.1.066.396 0 .704-.154.836-.154.088 0-.396.484-.418.506l-3.388 3.432c-.176.176-.264.264-.264.44 0 .154.11.264.286.264.198 0 .33-.176.44-.264.176-.132.352-.22.528-.22.616 0 1.056.682 2.134.682 1.232 0 1.804-.88 1.804-1.782 0-.682-.396-.968-.792-.968s-.726.308-.726.77c0 .418.286.66.594.66.22 0 .286-.11.352-.11.044 0 .066.022.066.066 0 .044-.044.132-.088.22a.482.482 0 0 1-.44.242c-.66 0-.858-.77-1.716-.77-.286 0-.418.132-.484.132 0 0 .154-.264.264-.374l3.52-3.476c.176-.176.286-.308.286-.484 0-.154-.132-.242-.286-.242z">
                        </path>
                    </g>
                </svg>