<svg xmlns="http://www.w3.org/2000/svg" viewBox="0 0 46 42" height="42"
                    width="46">
                    <g fill-rule="evenodd" fill="none">
                        <path d="M0 0h46v42H0z"></path>
                        <path fill="#000" class="fill"
                            d="M21 24.915V28h-1v-3.085a1.5 1.5 0 0 1 0-2.83V14h1v8.085a1.5 1.5 0 0 1 0 2.83zm5-2.83v-3.17a1.5 1.5 0 0 0 0-2.83V14h-1v2.085a1.5 1.5 0 0 0 0 2.83v3.17a1.5 1.5 0 0 0 0 2.83V28h1v-3.085a1.5 1.5 0 0 0 0-2.83zM16 13h14c.552 0 1 .445 1 1v14c0 .552-.445 1-1 1H16c-.552 0-1-.445-1-1V14c0-.552.445-1 1-1zm0 15h14V14H16v14z">
                        </path>
                    </g>
                </svg>