<svg xmlns="http://www.w3.org/2000/svg" viewBox="0 0 53 42" height="42"
                    width="53">
                    <g fill-rule="evenodd" fill="none">
                        <path d="M0 0h53v42H0z"></path>
                        <path fill="#000" class="fill"
                            d="M21.885 21.926c.04-.104.072-.193.118-.31.1-.257.215-.536.326-.81A2.485 2.485 0 0 0 20.5 20a2.5 2.5 0 0 0-.94 4.815v-.15c0-.306.062-.605.172-.884A1.49 1.49 0 0 1 19 22.5a1.5 1.5 0 0 1 2.885-.574zm3.3 4.863h-.11l-.05.113c-.045.11-.086.197-.13.3A.494.494 0 0 1 25 27.5c0 .263-.2.466-.452.49l-.085.194c-.142.314-.26.58-.365.816H25a1 1 0 0 0 1-1v-1c0-.065-.025-.122-.037-.184a10.63 10.63 0 0 0-.78-.027zM18 26l-2-4 4-6.67V18h1v-2.68l2.157 3.542c.136-.3.262-.57.372-.798.006-.022.02-.04.026-.063L20.5 13 15 22l2 4h-1a1 1 0 0 0-1 1v1a1 1 0 0 0 1 1h3.328c-.02-.127-.055-.25-.055-.383 0-.21.04-.415.097-.617H16.5c-.276 0-.5-.22-.5-.5s.224-.5.5-.5h3.273c.072-.16.148-.333.237-.535l.115-.262c-.05-.06-.1-.13-.15-.203H18zm11.726 1.953a28.076 28.076 0 0 1-.3-.787 66.026 66.026 0 0 0-.404-1.078 63.13 63.13 0 0 1-.43-1.152 176.48 176.48 0 0 1-.375-1.044 9.313 9.313 0 0 1-.235-.726c-.076-.252-.175-.58-.304-.986a31.205 31.205 0 0 0-.432-1.276c-.16-.444-.32-.875-.48-1.294a25.27 25.27 0 0 0-.41-1.027.537.537 0 0 0-.28-.406.582.582 0 0 0-.263-.058.54.54 0 0 0-.245.04.533.533 0 0 0-.297.404c-.134.27-.293.61-.476 1.017-.187.417-.372.847-.555 1.29a84.01 84.01 0 0 0-.515 1.273c-.16.406-.283.738-.365.985l-.128.352c-.04.11-.09.232-.146.363a29.03 29.03 0 0 0-.827.093 16.2 16.2 0 0 1-.375.047.555.555 0 0 0-.35.183.516.516 0 0 0-.124.35c.025.184.084.31.178.398a.51.51 0 0 0 .356.134c.03 0 .13-.01.307-.034l.37-.047c-.133.31-.273.63-.417.96l-.5 1.134-.375.847c-.1.22-.138.31-.153.355a.516.516 0 0 0 .267.697.473.473 0 0 0 .215.04c.22 0 .39-.105.49-.302.018-.05.08-.194.194-.45.12-.27.265-.595.438-.977a116.983 116.983 0 0 0 1.046-2.422c.207-.014.42-.026.637-.038a12.763 12.763 0 0 1 1.662.014c.286.02.53.042.73.06l.537.08a99.165 99.165 0 0 1 .942 2.355 125.636 125.636 0 0 0 .524 1.33c.04.117.11.208.21.268a.564.564 0 0 0 .288.082.38.38 0 0 0 .22-.052c.19-.072.313-.247.313-.482a.476.476 0 0 0-.036-.187 6.224 6.224 0 0 0-.124-.327zm-3.257-4.181a15.2 15.2 0 0 0-1.286-.048c-.31 0-.616.01-.912.026l.018-.044c.035-.085.062-.168.082-.247.07-.207.167-.474.29-.79a61.272 61.272 0 0 1 .83-2.053c.098-.227.192-.44.283-.643.078.2.157.412.238.636.128.35.253.7.376 1.05.12.35.233.68.332.994.1.31.177.576.23.79.032.088.06.172.092.27l.038.12a23.1 23.1 0 0 0-.613-.063zm11.063 4.59l-.02-.082a4.083 4.083 0 0 0-.112-.286 9.54 9.54 0 0 1-.24-.706 20.58 20.58 0 0 1-.306-1.126 16.16 16.16 0 0 1-.28-1.484c.017-.15.03-.294.045-.435.013-.15.02-.3.02-.452 0-.672-.04-1.23-.114-1.656a.577.577 0 0 0 .115-.325.434.434 0 0 0-.052-.21 1.885 1.885 0 0 0-.422-.6 2.174 2.174 0 0 0-.536-.383 1.665 1.665 0 0 0-.78-.175 3.2 3.2 0 0 0-.663.093 4.87 4.87 0 0 0-.888.303 6.17 6.17 0 0 0-.975.546 4.21 4.21 0 0 0-.907.836c-.27.33-.49.718-.66 1.155-.17.44-.256.947-.256 1.51 0 1.347.235 2.365.697 3.025.474.678 1.21 1.022 2.187 1.022.26 0 .524-.068.786-.202.254-.13.5-.31.733-.54.23-.224.45-.495.65-.803.124-.19.24-.393.343-.605.128.516.254.936.374 1.253.23.602.25.645.26.663.07.19.24.302.476.302.05 0 .113-.01.2-.032.228-.11.333-.28.333-.5a.567.567 0 0 0-.01-.106zm-2.41-2.45c-.17.395-.36.742-.566 1.032a3.31 3.31 0 0 1-.633.687c-.2.157-.38.236-.537.236a2.36 2.36 0 0 1-.676-.097 1.172 1.172 0 0 1-.556-.384c-.172-.202-.313-.5-.42-.887-.11-.396-.166-.94-.166-1.615 0-.416.066-.793.195-1.12.13-.33.3-.626.503-.877.205-.252.433-.468.68-.642.25-.176.503-.32.748-.43.245-.11.475-.19.683-.237a2.35 2.35 0 0 1 .473-.072.714.714 0 0 1 .284.052c.02.097.067.186.14.26.01.525.034 1.026.07 1.49.035.476.085.935.146 1.368-.08.433-.203.85-.368 1.235z">
                        </path>
                    </g>
                </svg>