<svg viewBox="0 0 49 42" height="42" width="49"
                    xmlns="http://www.w3.org/2000/svg">
                    <g fill-rule="evenodd" fill="none">
                        <path d="M0 0h49v42H0z"></path>
                        <path
                            d="M26.261 26.019h-2.33l-1.203 2.803H21.51l4.618-10.368 1.615 3.722c-.295.27-.552.582-.766.926l-.88-2.067-1.714 3.96h1.92a5.3 5.3 0 0 0-.042 1.024zm-6.394 2.803h-1.32a.498.498 0 0 1-.502-.494c0-.274.225-.495.502-.495h1.504v-1.502c-2.457-.17-3.963-1.485-4.647-3.535-.364-1.089-.45-2.22-.383-3.203.007-.104.014-.18.02-.224a.5.5 0 0 1 .557-.432.496.496 0 0 1 .438.55 3.712 3.712 0 0 0-.015.172c-.059.868.019 1.88.335 2.828.602 1.802 1.902 2.858 4.198 2.874.31 0 .603-.017.878-.054l-1.3 2.919-.265.596zm4.195-9.419l-1.79 4.017a3.45 3.45 0 0 1-1.72.458c-1.939 0-3.51-1.598-3.51-3.57V16.57c0-1.971 1.571-3.569 3.51-3.569 1.939 0 3.51 1.598 3.51 3.57v2.833zm-6.017-2.834v3.74c0 1.393 1.137 2.549 2.507 2.549s2.507-1.156 2.507-2.55V16.57c0-1.393-1.136-2.55-2.507-2.55-1.37 0-2.507 1.157-2.507 2.55zm3.009.88c0-.272.214-.493.485-.493h1.52v.988h-1.52a.495.495 0 0 1-.485-.494zm0 1.979c0-.273.214-.495.485-.495h1.52v.99h-1.52a.495.495 0 0 1-.485-.495zm-3.009-2.472h1.52a.495.495 0 0 1 0 .988h-1.52v-.988zm0 1.977h1.52a.495.495 0 0 1 0 .99h-1.52v-.99zM34 28.822h-1.068v-.86C32.36 28.644 31.668 29 30.766 29c-1.865 0-3.009-1.543-3.009-3.278 0-1.736 1.159-3.204 2.994-3.204.917 0 1.594.326 2.181 1.023v-.875H34v6.156zm-1.008-3.1c0-1.216-.767-2.255-2.076-2.255-1.278 0-2.06 1.068-2.06 2.255 0 1.201.752 2.314 2.06 2.314 1.34 0 2.076-1.083 2.076-2.314z"
                            fill="#373A39" class="fill"></path>
                    </g>
                </svg>