<svg xmlns="http://www.w3.org/2000/svg" viewBox="0 0 47 42"
                                    height="42" width="47">
                                    <g fill-rule="evenodd" fill="none">
                                        <path d="M0 0h47v42H0z"></path>
                                        <path fill="#000" class="fill"
                                            d="M23.64 13h3.757c.27 0 .548.212.62.482l1.08 4.047L31 15.184a.5.5 0 1 1 .776.63l-2.362 2.908 2.346 8.795c.07.266-.092.482-.37.482h-1.502v.5c0 .276-.214.5-.504.5h-.99a.508.508 0 0 1-.506-.5V28h-4.966c.192-.32.35-.655.47-1h7.195l-.8-3H23.64v-1h1.01l3.667-4.512L27.12 14h-3.48v-1zm0 12h2.758a.5.5 0 0 1 .49.5c0 .276-.215.5-.49.5h-2.78c.014-.146.022-.292.022-.44V25zm5.88-2h-3.58l2.695-3.318L29.52 23zm-5.127-7h.99c.29 0 .505-.224.505-.5 0-.268-.226-.5-.504-.5h-.99a.495.495 0 0 0-.506.5c0 .268.226.5.505.5zm0 2h.99c.29 0 .505-.224.505-.5 0-.268-.226-.5-.504-.5h-.99a.495.495 0 0 0-.506.5c0 .268.226.5.505.5zm.99 1h-.99a.495.495 0 0 0-.505.5c0 .268.226.5.504.5h.99c.292 0 .506-.224.506-.5 0-.268-.226-.5-.505-.5zm-4.343 5.2c-.38-.34-.94-.52-1.6-.52-2.46 0-4.44 1.82-4.44 3.76 0 1.18.96 1.88 2.18 1.88 2 0 4.46-1.86 4.46-3.76V9h-.6v15.2z">
                                        </path>
                                    </g>
                                </svg>