<svg xmlns="http://www.w3.org/2000/svg" viewBox="0 0 37 42" height="42"
                    width="37">
                    <g fill-rule="evenodd" fill="none">
                        <path d="M0 0h37v42H0z"></path>
                        <path fill="#000" class="fill"
                            d="M17.134 27.75c1.958 0 4.356-1.804 4.356-3.674 0-1.122-.88-1.826-2.134-1.826-2.42 0-4.356 1.782-4.356 3.674 0 1.144.946 1.826 2.134 1.826zm6.038-13.67c.286-.066.286-.22.286-.396 0-.176 0-.308-.286-.396l-6.6-2.244a1.792 1.792 0 0 0-.198-.044c-.198 0-.264.132-.33.308-.022.088-.044.154-.044.22 0 .11.066.22.308.308 0 0 4.752 1.606 4.972 1.694.11.022.154.088.154.154s-.044.11-.176.154c-.242.066-4.95 1.672-4.95 1.672-.242.11-.308.22-.308.33 0 .066.022.132.044.198.066.154.154.33.308.33.022 0 .066 0 .088-.022l6.732-2.266z">
                        </path>
                    </g>
                </svg>