<svg xmlns="http://www.w3.org/2000/svg" fill="none" viewBox="0 0 37 42"
                    height="42" width="37">
                    <g fill="#000" class="fill" clip-rule="evenodd" fill-rule="evenodd" clip-path="url(#a)">
                        <path
                            d="M21.93 19.324c.506 0 .528-.242.528-.528 0-.286 0-.528-.528-.528h-6.402c-.528 0-.528.242-.528.528 0 .286 0 .528.528.528h6.402zm-2.31-4.4a.93.93 0 0 0-.924-.924.93.93 0 0 0-.924.924.93.93 0 0 0 .924.924.93.93 0 0 0 .924-.924zm.258 8.541c1.254 0 2.134.704 2.134 1.826 0 1.87-2.398 3.674-4.356 3.674-1.188 0-2.134-.681-2.134-1.825 0-1.893 1.936-3.675 4.356-3.675z">
                        </path>
                    </g>
                    <defs>
                        <clipPath id="a">
                            <path d="M0 0h37v42H0z" fill="#000" class="fill"></path>
                        </clipPath>
                    </defs>
                </svg>