<svg xmlns="http://www.w3.org/2000/svg" viewBox="0 0 37 42" height="42"
                    width="37">
                    <g fill-rule="evenodd" fill="none">
                        <path d="M0 0h37v42H0z"></path>
                        <path fill="#000" class="fill"
                            d="M17.134 27.75c1.958 0 4.356-1.804 4.356-3.674 0-1.122-.88-1.826-2.134-1.826-2.42 0-4.356 1.782-4.356 3.674 0 1.144.946 1.826 2.134 1.826zm1.638-16.184c-.066-.088-.132-.132-.22-.132a.255.255 0 0 0-.22.132L16 16.648c-.022.044-.022.066-.022.11 0 .11.044.22.154.242.022.022.088.022.11.022.088 0 .198-.044.242-.154 0 0 1.188-2.618 1.232-2.706.022-.044.044-.066.088-.066s.088.022.132.066c.022.088 1.254 2.706 1.254 2.706a.304.304 0 0 0 .242.132h1.496c.154-.022.242-.11.242-.242 0-.044 0-.088-.022-.11l-2.376-5.082z">
                        </path>
                    </g>
                </svg>