<?xml version="1.0" encoding="UTF-8" standalone="no"?>
<!-- Created with Inkscape (http://www.inkscape.org/) -->

<svg
                        xmlns="http://www.w3.org/2000/svg" viewBox="0 0 52 42" height="42" width="52">
                        <g fill-rule="evenodd" fill="none">
                            <path d="M0 0h52v42H0z"></path>
                            <path fill="#000" class="fill"
                                d="M34.966 25.445l-.282.125c-.157 1.54-4.502 4.22-7.256 5.446-2.814 1.253-7.613 2.643-8.762 1.686l-.28.125c1.44 1.67 5.84.843 9.478-.777 3.86-1.718 7.31-4.41 7.102-6.605zm-14.53-.515c-.342-.288-.846-.468-1.44-.468-2.214 0-3.996 1.638-3.996 3.384 0 1.062.864 1.692 1.962 1.692 1.8 0 3.996-1.674 4.014-3.366V14.616h-.54V24.93zm8-4c-.342-.288-.846-.468-1.44-.468-2.214 0-3.996 1.638-3.996 3.384 0 1.062.864 1.692 1.962 1.692 1.8 0 3.996-1.674 4.014-3.366V10.616h-.54V20.93zm8-3c-.342-.288-.846-.468-1.44-.468-2.214 0-3.996 1.638-3.996 3.384 0 1.062.864 1.692 1.962 1.692 1.8 0 3.996-1.674 4.014-3.366V7.616h-.54V17.93z">
                            </path>
                        </g>
                    </svg>