<svg xmlns="http://www.w3.org/2000/svg" viewBox="0 0 43 42" height="42"
                    width="43">
                    <g fill-rule="evenodd" fill="none">
                        <path d="M0 0h43v42H0z"></path>
                        <path fill="#000" class="fill"
                            d="M21.644 20.138c4.686 0 5.632 3.476 5.852 4.312.022.066.022.132.044.154.154.308.242.462.462.462.198 0 .308-.088.308-.308 0-.066 0-.132-.022-.22-1.364-6.732-5.962-6.776-6.6-6.776-.704 0-5.258.044-6.6 6.776-.022.088-.022.176-.022.242 0 .22.11.286.286.286.198 0 .308-.154.44-.462.022-.022.044-.11.066-.198.264-.902 1.254-4.268 5.786-4.268zm1.232 3.718c0-.638-.55-1.188-1.21-1.188-.638 0-1.188.55-1.188 1.188 0 .66.55 1.21 1.188 1.21.66 0 1.21-.55 1.21-1.21z">
                        </path>
                    </g>
                </svg>