<svg xmlns="http://www.w3.org/2000/svg" viewBox="0 0 34 42" height="42"
                    width="34">
                    <g fill-rule="evenodd" fill="none">
                        <path d="M0 0h34v42H0z"></path>
                        <path fill="#000" class="fill"
                            d="M17.016 15.972c-1.204 0-1.988.784-1.988 1.764 0 .952.644 1.568 1.568 1.568.7 0 .784.588.784.588.028.112.056.196.056.308 0 .392-.196.756-.448 1.092-.476.616-1.204 1.036-1.26 1.092-.112.056-.224.112-.224.252 0 .028.028.056.028.084.028.168.112.224.196.224.924 0 2.352-1.232 2.8-1.932.56-.868.728-1.848.728-2.66v-.196c0-.812-.336-1.372-.784-1.708a2.513 2.513 0 0 0-1.456-.476z">
                        </path>
                    </g>
                </svg>