<svg viewBox="0 0 37 42" height="42" width="37"
                    xmlns="http://www.w3.org/2000/svg">
                    <g fill-rule="evenodd" fill="none">
                        <path d="M15 0h22v42H15z"></path>
                        <path
                            d="M17.134 27.75c-1.188 0-2.134-.682-2.134-1.826 0-1.892 1.936-3.674 4.356-3.674 1.254 0 2.134.704 2.134 1.826 0 1.87-2.398 3.674-4.356 3.674zm2.714-11.674a.93.93 0 0 1-.924.924.93.93 0 0 1-.924-.924.93.93 0 0 1 .924-.924.93.93 0 0 1 .924.924z"
                            fill="#000" class="fill"></path>
                    </g>
                </svg>