<svg xmlns="http://www.w3.org/2000/svg" viewBox="0 0 37 42" height="42"
                    width="37">
                    <g fill-rule="evenodd" fill="none">
                        <path d="M0 0h37v42H0z"></path>
                        <path fill="#000" class="fill"
                            d="M17.156 27.806c1.958 0 4.356-1.804 4.356-3.674 0-1.122-.88-1.826-2.134-1.826-2.42 0-4.356 1.782-4.356 3.674 0 1.144.946 1.826 2.134 1.826zm4.774-11.75c.506 0 .528-.242.528-.528 0-.286 0-.528-.528-.528h-6.402c-.528 0-.528.242-.528.528 0 .286 0 .528.528.528h6.402z">
                        </path>
                    </g>
                </svg>