<svg viewBox="0 0 35 42" height="42" width="35"
                        xmlns="http://www.w3.org/2000/svg">
                        <g fill-rule="evenodd" fill="none">
                            <path d="M0 0h35v42H0z"></path>
                            <path
                                d="M15.814 19.644c0-.308 1.342-.88 1.87-.88.132 0 .198.022.198.11v2.266c0 .396-1.254.902-1.804.902-.154 0-.264-.044-.264-.132v-2.266zm2.288-3.124c-.044 0-.066.022-.088.022 0 0-1.408.506-1.98.506-.132 0-.22-.022-.22-.11v-3.674A.268.268 0 0 0 15.55 13h-.286a.254.254 0 0 0-.264.264v11.33c0 .132.066.198.176.198.022 0 .066-.022.088-.022 0 0 .044 0 .066-.022.308-.132 1.54-.66 2.178-.66.22 0 .374.066.374.242v3.278c0 .154.11.264.264.264h.286c.132 0 .264-.11.264-.264V16.564a.174.174 0 0 0-.176-.176c-.022 0-.066 0-.088.022l-.33.11z"
                                fill="#000" class="fill"></path>
                        </g>
                    </svg>