<?xml version="1.0" encoding="UTF-8" standalone="no"?>
<!-- Created with Inkscape (http://www.inkscape.org/) -->

<svg xmlns="http://www.w3.org/2000/svg" viewBox="0 0 35 42" height="42" width="35">
                        <g fill-rule="evenodd" fill="none">
                            <path d="M0 0h35v42H0z"></path>
                            <path fill="#000" class="fill"
                                d="M16.034 25.44s-.066-1.32-.066-2.2c0-.352.022-.616.044-.704.088-.264.66-.748.968-.924.198-.11.396-.154.572-.154.22 0 .418.088.55.242.22.242.352.616.352 1.034 0 .396-.11.858-.374 1.32-.286.528-.924 1.232-1.584 1.65a.492.492 0 0 1-.22.066c-.198 0-.242-.22-.242-.33zm-.77 1.958c.066.088.132.11.198.11a.28.28 0 0 0 .132-.044c.66-.374 1.188-.968 1.738-1.342 1.958-1.364 2.64-2.706 2.64-3.718 0-1.254-.968-2.046-1.98-2.112-.154 0-.308.022-.462.066a2.693 2.693 0 0 0-.748.308c-.132.11-.374.308-.484.308-.044 0-.066 0-.11-.022a.407.407 0 0 1-.242-.374c.022-.484.154-5.764.154-6.204 0-.242-.198-.374-.418-.374-.308 0-.66.22-.682.616 0 0 .088 12.562.264 12.782z">
                            </path>
                        </g>
                    </svg>