<?xml version="1.0" encoding="UTF-8" standalone="no"?>
<!-- Created with Inkscape (http://www.inkscape.org/) -->

<svg xmlns="http://www.w3.org/2000/svg" height="42" width="43">
                                    <g fill-rule="evenodd" fill="none">
                                        <path d="M0 0h43v42H0z"></path>
                                        <g fill="#000" class="fill">
                                            <path
                                                d="M26.04 26.7c-.38-.34-.94-.52-1.6-.52-2.46 0-4.44 1.82-4.44 3.76 0 1.18.96 1.88 2.18 1.88 2 0 4.46-1.86 4.46-3.76V11.5h-.6v15.2z">
                                            </path>
                                            <path d="M21.52 26.768l10.725-11.7-.766-.836-10.724 11.7z">
                                            </path>
                                            <path
                                                d="M20.755 15.068l10.724 11.7.766-.836-10.724-11.7zM12.24 31.9c3.8 0 4.58-3.08 4.58-3.86V11.5h-.6v15.14c-.4-.34-.98-.54-1.68-.54-3.46 0-4.54 2.68-4.54 3.88 0 1.22.98 1.92 2.24 1.92zm.54-3.94c1.14-.66 1.86-.9 2.34-.9.44 0 .68.2.84.48.08.14.14.28.14.44 0 .46-.48 1.02-2.1 2.08-1.04.7-1.76.94-2.26.94-.48 0-.76-.24-.92-.52a.951.951 0 0 1-.14-.46c0-.5.5-1.14 2.1-2.06z">
                                            </path>
                                        </g>
                                    </g>
                                </svg>