<?xml version="1.0" encoding="UTF-8" standalone="no"?>
<!-- Created with Inkscape (http://www.inkscape.org/) -->

<svg xmlns="http://www.w3.org/2000/svg" fill="none"
                                    viewBox="0 0 32 32" height="32" width="32">
                                    <g fill="#000" class="fill">
                                        <path d="M10.2379 5.41253V25.6698H9.60354V5.41253H10.2379Z" clip-rule="evenodd"
                                            fill-rule="evenodd"></path>
                                        <path
                                            d="M6.0511 29.201C4.90925 29.201 4 28.5455 4 27.446C4 25.6275 5.86079 23.9147 8.18678 23.9147C9.39206 23.9147 10.2379 24.5914 10.2379 25.6698C10.2379 27.4671 7.93303 29.201 6.0511 29.201Z">
                                        </path>
                                        <path d="M19.119 4.09097V20.3835H18.4846V4.09097H19.119Z" clip-rule="evenodd"
                                            fill-rule="evenodd"></path>
                                        <path
                                            d="M14.9321 23.9148C13.7903 23.9148 12.881 23.2593 12.881 22.1597C12.881 20.3412 14.7418 18.6285 17.0678 18.6285C18.2731 18.6285 19.119 19.305 19.119 20.3835C19.119 22.1808 16.8141 23.9148 14.9321 23.9148Z">
                                        </path>
                                        <path d="M28 2.76941V15.0971H27.3656V2.76941H28Z" clip-rule="evenodd"
                                            fill-rule="evenodd"></path>
                                        <path
                                            d="M23.8132 18.6284C22.6713 18.6284 21.7621 17.9729 21.7621 16.8733C21.7621 15.0548 23.6229 13.3421 25.9489 13.3421C27.1542 13.3421 28 14.0187 28 15.0971C28 16.8945 25.6951 18.6284 23.8132 18.6284Z">
                                        </path>
                                        <path d="M9.92072 5.41258V8.05574L27.6828 5.41258V2.76941L9.92072 5.41258Z">
                                        </path>
                                    </g>
                                </svg>