<?xml version="1.0" encoding="UTF-8" standalone="no"?>
<!-- Created with Inkscape (http://www.inkscape.org/) -->

<svg xmlns="http://www.w3.org/2000/svg" viewBox="0 0 36 42" height="42" width="36">
                        <g fill-rule="evenodd" fill="none">
                            <path d="M0 0h36v42H0z"></path>
                            <path fill="#000" class="fill"
                                d="M18.696 21.69c-.132.44-1.166.88-1.672.88-.132 0-.242-.044-.264-.11-.044-.088-.066-.572-.066-1.1 0-.682.022-1.452.066-1.628.044-.374 1.056-.836 1.606-.836.154 0 .286.044.33.132.044.11.088.66.088 1.254s-.044 1.21-.088 1.408zm1.518-3.586a.456.456 0 0 0 .264-.374v-1.562c0-.11-.066-.176-.154-.176-.044 0-.066 0-.11.022 0 0-.44.176-.55.198-.154 0-.308-.11-.308-.286v-2.684c0-.132-.132-.242-.308-.242-.22 0-.352.11-.352.242v2.86c-.022.22-.088.506-.286.638-.264.154-1.012.462-1.386.55-.198 0-.264-.264-.264-.44v-2.64c0-.132-.154-.242-.308-.242-.22 0-.352.11-.352.242v2.97c0 .308-.132.528-.264.594-.132.066-.572.242-.572.242a.4.4 0 0 0-.264.352v1.562c0 .132.066.198.176.198.022 0 .066-.022.088-.022 0 0 .33-.132.484-.22.022 0 .044-.022.066-.022.154 0 .286.22.286.396v2.178c0 .242-.11.44-.242.506-.132.044-.594.242-.594.242a.4.4 0 0 0-.264.352V25.1c0 .132.066.198.176.198.022 0 .066-.022.088-.022 0 0 .308-.132.506-.198.022-.022.044-.022.066-.022.154 0 .264.242.264.352v2.706c0 .132.132.242.286.242.22 0 .374-.11.374-.242v-3.058c0-.286.11-.44.22-.484l1.342-.55c.022 0 .066-.022.088-.022.176 0 .286.264.286.396v2.75c0 .132.132.242.286.242.242 0 .374-.11.374-.242v-3.124c0-.176.088-.44.242-.506s.616-.242.616-.242a.456.456 0 0 0 .264-.374v-1.562c0-.11-.066-.176-.154-.176-.044 0-.066 0-.11.022l-.572.22c-.132 0-.286-.132-.286-.396v-2.046c0-.154.11-.572.286-.638l.572-.22z">
                            </path>
                        </g>
                    </svg>