<?xml version="1.0" encoding="UTF-8" standalone="no"?>
<!-- Created with Inkscape (http://www.inkscape.org/) -->

<svg viewBox="0 0 36 42" height="42" width="36"
                                        xmlns="http://www.w3.org/2000/svg">
                                        <g fill-rule="evenodd" fill="none">
                                            <g fill="#000" class="fill">
                                                <path
                                                    d="M17.04 25.7c-.38-.34-.94-.52-1.6-.52-2.46 0-4.44 1.82-4.44 3.76 0 1.18.96 1.88 2.18 1.88 2 0 4.46-1.86 4.46-3.76V15.5h-.6v10.2z">
                                                </path>
                                                <path
                                                    d="M13.86 14.677h-3.858v.952h3.856a3.315 3.315 0 0 1 .002-.952zm.93-1.874c.108-.11.23-.196.35-.287L12.535 9.91l-.637.637 2.605 2.606c.09-.12.178-.24.286-.35zm1.888-.932c.316-.045.637-.045.954.002V8h-.954v3.871zm-1.88 5.648c.108.108.229.193.348.283l-2.605 2.606-.638-.637 2.606-2.606c.092.12.18.243.289.354zm4.994-4.364l2.607-2.608-.637-.637-2.607 2.607c.119.091.242.177.35.286.11.11.196.232.287.352z"
                                                    fill-rule="nonzero"></path>
                                                <path d="M17 15h8v3h-8z"></path>
                                            </g>
                                            <path d="M0 0h36v42H0z"></path>
                                        </g>
                                    </svg>