<?xml version="1.0" encoding="UTF-8" standalone="no"?>
<!-- Created with Inkscape (http://www.inkscape.org/) -->

<svg viewBox="0 0 45 42" height="42" width="45"
                        xmlns="http://www.w3.org/2000/svg">
                        <g fill-rule="evenodd" fill="none">
                            <path d="M0 0h45v42H0z"></path>
                            <path fill="#000" class="fill"
                                d="M21.02 21.28c0-.04 0-.08.02-.14.06-.12.5-1.32.5-2.54 0-.26-.02-.48-.06-.72-.2-1.36-.72-1.92-2.16-3.48-1.08-1.16-2.2-1.48-2.54-3.6-.04-.22-.28-.26-.4-.26s-.34.02-.34.02v15.08c-.38-.34-.94-.52-1.6-.52-2.46 0-4.44 1.82-4.44 3.76 0 1.18.96 1.88 2.18 1.88 2 0 4.46-1.86 4.46-3.76v-8.48c1.1.08 2.34.42 3.54 2.86.46.96.64 1.94.64 2.98 0 .58-.06 1.18-.16 1.78-.02.08-.02.12-.02.18 0 .28.14.44.28.48.06.02.1.04.16.04.14 0 .28-.08.4-.34.08-.1.14-1.24.14-2.2v-.44c0-.84-.22-1.66-.58-2.4 0-.06-.02-.1-.02-.18zm-.26-2.08c-.04.16-.04.36-.14.52-.02.06-.16.12-.26.12-.06 0-.1-.02-.14-.08-.32-.5-.66-.9-1.08-1.38-.94-1.08-1.86-1.56-2.28-3.2-.02-.02-.02-.04-.02-.06 0-.08.12-.2.28-.2h.16c1.22 0 2.3 1.12 2.96 2.1.36.52.54 1.14.54 1.78 0 .14 0 .26-.02.4zm13.28 2.26c0-.06-.02-.1-.02-.18 0-.04 0-.08.02-.14.06-.12.5-1.32.5-2.54 0-.26-.02-.48-.06-.72-.2-1.36-.72-1.92-2.16-3.48-1.08-1.16-2.2-1.48-2.54-3.6-.04-.22-.28-.26-.4-.26s-.34.02-.34.02v15.08c-.38-.34-.94-.52-1.6-.52-2.46 0-4.44 1.82-4.44 3.76 0 1.18.96 1.88 2.18 1.88 2 0 4.46-1.86 4.46-3.76v-8.48c1.1.08 2.34.42 3.54 2.86.46.96.64 1.94.64 2.98 0 .58-.06 1.18-.16 1.78-.02.08-.02.12-.02.18 0 .28.14.44.28.48.06.02.1.04.16.04.14 0 .28-.08.4-.34.08-.1.14-1.24.14-2.2v-.44c0-.84-.22-1.66-.58-2.4zm-.28-2.26c-.04.16-.04.36-.14.52-.02.06-.16.12-.26.12-.06 0-.1-.02-.14-.08-.32-.5-.66-.9-1.08-1.38-.94-1.08-1.86-1.56-2.28-3.2-.02-.02-.02-.04-.02-.06 0-.08.12-.2.28-.2h.16c1.22 0 2.3 1.12 2.96 2.1.36.52.54 1.14.54 1.78 0 .14 0 .26-.02.4z">
                            </path>
                        </g>
                    </svg>