<?xml version="1.0" encoding="UTF-8" standalone="no"?>
<!-- Created with Inkscape (http://www.inkscape.org/) -->

<svg xmlns="http://www.w3.org/2000/svg" viewBox="0 0 40 42" height="42"
                        width="40">
                        <g fill-rule="evenodd" fill="none">
                            <path fill="#000" class="fill"
                                d="M19.7 22.04c-2.9 0-4.7 1.22-4.7 2.7 0 1.46 1.24 2.76 4.48 2.76 3.56 0 4.7-1.24 4.7-2.76 0-1.54-2.46-2.7-4.48-2.7zm-2.28 1.36c.24-.74 1.04-.86 1.72-.86 1.48 0 2.68 1.6 2.68 2.92 0 .14-.02.28-.04.4-.1.54-.42.92-.96 1.06-.22.06-.44.08-.66.08-.2 0-.38-.02-.58-.08a3.06 3.06 0 0 1-1.02-.58c-.16-.14-.32-.3-.46-.48-.42-.5-.76-1.24-.76-1.92 0-.18.02-.36.08-.54z">
                            </path>
                            <path d="M0 0h40v42H0z"></path>
                        </g>
                    </svg>