<?xml version="1.0" encoding="UTF-8" standalone="no"?>
<!-- Created with Inkscape (http://www.inkscape.org/) -->

<svg xmlns="http://www.w3.org/2000/svg" viewBox="0 0 40 42" height="42"
                        width="40">
                        <g fill-rule="evenodd" fill="none">
                            <path d="M0 0h40v42H0z"></path>
                            <path fill="#000"
                                d="M19.192 23c1.424 0 3.168-1.312 3.168-2.672 0-.816-.64-1.328-1.552-1.328-1.76 0-3.168 1.296-3.168 2.672 0 .832.688 1.328 1.552 1.328zm-1.794 1.806c-.748-.572-1.012-.902-1.254-1.606-.22-.638-.33-1.342-.33-2.266 0-.99.11-1.76.374-2.332.264-.572.55-.902 1.21-1.452l-.088-.154c-.682.462-.968.704-1.32 1.122-.66.814-.99 1.738-.99 2.838 0 1.188.352 2.112 1.166 3.058.396.44.638.638 1.122.946l.11-.154zm5.334.154c.484-.308.726-.506 1.1-.946.814-.946 1.166-1.87 1.166-3.058 0-1.1-.33-2.024-.99-2.838-.352-.418-.616-.66-1.32-1.122l-.088.154c.682.55.968.88 1.232 1.452.242.572.374 1.342.374 2.332 0 .924-.11 1.628-.33 2.266-.264.704-.528 1.034-1.276 1.606l.132.154z"
                                class="fill"></path>
                        </g>
                    </svg>