<svg xmlns="http://www.w3.org/2000/svg" viewBox="0 0 42 42" height="42"
                        width="42">
                        <g fill-rule="evenodd" fill="none">
                            <path fill="#000" class="fill"
                                d="M24.02 17.12c-1.02-1.58-1.86-3.22-2.18-5.14-.06-.32-.22-.44-.6-.44-.1 0-.18.04-.2.18v14.92c-.38-.34-.94-.52-1.6-.52-2.46 0-4.44 1.82-4.44 3.76 0 1.18.96 1.88 2.18 1.88 2 0 4.46-1.86 4.46-3.76V16.78c1.24.76 2.72 2.96 3.34 4.42.3.68.48 1.82.48 3 0 .9-.14 1.84-.48 2.74-.04.12-.06.22-.06.3 0 .32.2.5.32.58l.04.02c.18.02.42-.06.52-.4 0 0 .52-1.9.52-3.46 0-2.5-1.04-4.86-2.3-6.86z">
                            </path>
                            <path d="M0 0h42v42H0z"></path>
                        </g>
                    </svg>