<svg xmlns="http://www.w3.org/2000/svg" viewBox="0 0 42 42" height="42"
                        width="42">
                        <g fill-rule="evenodd" fill="none">
                            <path fill="#000" class="fill"
                                d="M25.72 22.7c-.02-.04-.02-.08-.02-.14 0-.04 0-.08.02-.12.04-.14.46-1.24.46-2.38a4.4 4.4 0 0 0-.42-1.86c.18-.52.4-1.34.4-2.12 0-.2 0-.38-.04-.56-.08-.46-.2-.84-.4-1.2.18-.5.44-1.38.44-2.22 0-.18-.02-.36-.04-.54-.22-1.22-.68-1.76-2.02-3.22-1-1.08-2.08-1.4-2.42-3.4-.02-.18-.28-.38-.4-.38s-.24.24-.24.24v21.84c-.4-.34-.96-.52-1.6-.52-2.46 0-4.44 1.82-4.44 3.76 0 1.18.96 1.88 2.18 1.88 1.98 0 4.44-1.86 4.44-3.76v-8.02c1.04.08 2.18.42 3.28 2.66.44.88.62 1.78.62 2.74 0 .56-.06 1.12-.16 1.7 0 .06-.02.1-.02.14 0 .24.12.42.26.48.04.02.08.04.12.04.12 0 .26-.1.4-.32.06-.12.14-1.04.14-1.9 0-.2-.02-.38-.02-.56-.04-.78-.22-1.54-.52-2.26zm-.3-2.08c-.04.16-.04.32-.1.46-.02.06-.12.12-.22.12-.06 0-.12-.02-.14-.08-.3-.44-.58-.78-.92-1.18l-.1-.1c-.86-1.02-1.74-1.44-2.14-2.98 0-.02.14-.24.26-.26 1.26 0 2.28 1.02 2.9 1.94.32.48.5 1.02.5 1.6 0 .16-.02.32-.04.48zm.02-4.12c-.04.2-.14.54-.24.88-.28-.36-.64-.74-1.1-1.24-.98-1.08-1.96-1.42-2.28-3.36 1.1 0 2.28.48 3.38 2.34.22.4.3.7.3.96 0 .16-.04.28-.06.42zm0-3.96l-.26.98c-.28-.34-.62-.72-1.08-1.22-1-1.08-1.92-1.4-2.26-3.4 0-.02 0-.06-.02-.08 1.14 0 2.28.5 3.38 2.34.22.4.3.7.3.96 0 .16-.04.28-.06.42z">
                            </path>
                            <path d="M0 0h42v42H0z"></path>
                        </g>
                    </svg>