<svg xmlns="http://www.w3.org/2000/svg" viewBox="0 0 37 42" height="42"
                        width="37">
                        <g fill-rule="evenodd" fill="none">
                            <path d="M0 0h37v42H0z"></path>
                            <path fill="#000" class="fill"
                                d="M17.24 31.9c3.8 0 4.58-3.08 4.58-3.86V11.5h-.6v15.14c-.4-.34-.98-.54-1.68-.54-3.46 0-4.54 2.68-4.54 3.88 0 1.22.98 1.92 2.24 1.92zm.54-3.94c1.14-.66 1.86-.9 2.34-.9.44 0 .68.2.84.48.08.14.14.28.14.44 0 .46-.48 1.02-2.1 2.08-1.04.7-1.76.94-2.26.94-.48 0-.76-.24-.92-.52a.95.95 0 0 1-.14-.46c0-.5.5-1.14 2.1-2.06z">
                            </path>
                        </g>
                    </svg>