<?xml version="1.0" encoding="UTF-8" standalone="no"?>
<!-- Created with Inkscape (http://www.inkscape.org/) -->

<svg viewBox="0 0 40 42" height="42" width="40"
                                    xmlns="http://www.w3.org/2000/svg">
                                    <g fill-rule="evenodd" fill="none">
                                        <path d="M0 0h40v42H0z"></path>
                                        <path
                                            d="M27.356 16.792c-.972 0-1.718 2.056-1.718 3.141 0 .543.181.859.498.859.745 0 1.717-2.305 1.717-3.3 0-.361-.135-.7-.497-.7zm2.147-.271l-1.153 3.66a1.002 1.002 0 0 0-.068.34c0 .18.068.294.25.294.406 0 .745-.837.97-1.402.046-.113.114-.203.25-.203.112 0 .248.068.248.226 0 .136-.113.294-.113.407-.18.43-.655 1.604-1.537 1.604-.497 0-.745-.248-.836-.632-.045-.204-.068-.34-.135-.34-.113 0-.226.227-.25.25-.315.451-.745.745-1.242.745-.633 0-1.356-.52-1.356-1.83 0-1.718 1.288-3.526 2.712-3.526.407 0 .655.136.836.43.09.135.158.248.203.248.068 0 .09-.09.159-.362.045-.18.113-.27.316-.27h.542c.181 0 .249.044.249.157 0 .046-.023.113-.045.204zm-8.52-.362c.588 0 .95.52.95 1.175 0 1.085-.86 2.012-.86 2.87 0 .317.181.61.633.61.769 0 1.673-1.333 1.673-2.35 0-.384-.159-.565-.407-.745-.226-.159-.475-.385-.475-.724 0-.406.317-.79.746-.79.565 0 .881.632.881 1.355 0 2.192-1.265 3.91-2.689 3.91-.814 0-1.514-.475-1.514-1.356 0-1.107.972-2.215.972-3.006 0-.135-.068-.226-.204-.226-.384 0-.723.837-.904 1.424-.045.136-.135.203-.248.203-.113 0-.249-.067-.249-.226 0-.09.023-.203.09-.384.317-.881.769-1.74 1.605-1.74zm-5.424.407c-1.017 0-1.717.588-1.717 1.582 0 .655.339 1.062 1.4 1.853.182.136.295.18.408.18.09 0 .18-.022.27-.09a2.494 2.494 0 0 0 1.086-2.056c0-.746-.362-1.469-1.447-1.469zm-2.53 5.266c-.95.587-1.266 1.627-1.266 2.327 0 .814.43 1.74 1.808 1.74 1.062 0 1.92-.655 1.92-1.808 0-.678-.361-.994-1.807-2.124-.181-.158-.317-.226-.43-.226-.068 0-.135.045-.226.09zm2.576-5.944c2.214 0 3.118 1.062 3.118 2.35 0 .836-.474 1.763-1.695 2.396-.27.135-.384.226-.384.339 0 .113.113.226.271.407.52.564.723 1.152.723 1.988 0 2.057-1.92 3.21-4.113 3.21-2.44 0-3.525-1.176-3.525-2.667 0-1.085.565-2.08 2.011-2.667.294-.136.407-.203.407-.316 0-.09-.068-.204-.18-.34-.362-.429-.543-.994-.543-1.65 0-1.92 1.604-3.05 3.91-3.05z"
                                            fill="#000" class="fill"></path>
                                    </g>
                                </svg>