<?xml version="1.0" encoding="UTF-8" standalone="no"?>
<!-- Created with Inkscape (http://www.inkscape.org/) -->

<svg viewBox="0 0 44 42" height="42" width="44"
                                        xmlns="http://www.w3.org/2000/svg">
                                        <g fill-rule="evenodd" fill="none">
                                            <path d="M0 0h44v42H0z"></path>
                                            <path
                                                d="M31 27.31l2.166-2.17a.487.487 0 1 1 .691.69l-2.952 2.95c-.016.03-.026.05-.048.08a.527.527 0 0 1-.714 0c-.022-.03-.032-.05-.048-.08l-2.952-2.95a.487.487 0 1 1 .69-.69L30 27.31V14.69l-2.167 2.17a.489.489 0 0 1-.69-.69l2.952-2.96c.016-.02.026-.05.048-.07.097-.1.224-.14.362-.14.128 0 .255.04.352.14.022.02.032.05.048.07l2.952 2.96a.487.487 0 1 1-.69.69L31 14.69v12.62zm-10.866-2.56c-1.188 0-2.134-.682-2.134-1.826 0-1.892 1.936-3.674 4.356-3.674 1.254 0 2.134.704 2.134 1.826 0 1.87-2.398 3.674-4.356 3.674zm-9.87 2.99C10.088 27.52 10 14.958 10 14.958c.022-.396.374-.616.682-.616.22 0 .418.132.418.374 0 .44-.132 5.72-.154 6.204 0 .154.088.308.242.374a.198.198 0 0 0 .11.022c.11 0 .352-.198.484-.308.242-.154.506-.242.748-.308.154-.044.308-.066.462-.066 1.012.066 1.98.858 1.98 2.112 0 1.012-.682 2.354-2.64 3.718-.55.374-1.078.968-1.738 1.342 0 0-.066.044-.132.044s-.132-.022-.198-.11zm.77-1.958c0 .11.044.33.242.33a.492.492 0 0 0 .22-.066c.66-.418 1.298-1.122 1.584-1.65.264-.462.374-.924.374-1.32 0-.418-.132-.792-.352-1.034a.715.715 0 0 0-.55-.242c-.176 0-.374.044-.572.154-.308.176-.88.66-.968.924-.022.088-.044.352-.044.704 0 .88.066 2.2.066 2.2z"
                                                fill="#000" class="fill"></path>
                                        </g>
                                    </svg>