<svg viewBox="0 0 53 42" height="42" width="53"
                                    xmlns="http://www.w3.org/2000/svg">
                                    <g fill-rule="evenodd" fill="none">
                                        <path d="M0 0h53v42H0z"></path>
                                        <path
                                            d="M19.74 18.64c.14-.06.24-.22.24-.34v-1.42c0-.1-.06-.16-.14-.16-.04 0-.06 0-.1.02 0 0-.4.16-.5.18-.14 0-.28-.1-.28-.26v-2.44c0-.12-.12-.22-.28-.22-.2 0-.32.1-.32.22v2.6c-.02.2-.08.46-.26.58-.24.14-.92.42-1.26.5-.18 0-.24-.24-.24-.4v-2.4c0-.12-.14-.22-.28-.22-.2 0-.32.1-.32.22v2.7c0 .28-.12.48-.24.54-.12.06-.52.22-.52.22-.14.04-.24.2-.24.32v1.42c0 .12.06.18.16.18.02 0 .06-.02.08-.02 0 0 .3-.12.44-.2.02 0 .04-.02.06-.02.14 0 .26.2.26.36v1.98c0 .22-.1.4-.22.46-.12.04-.54.22-.54.22-.14.04-.24.2-.24.32V25c0 .12.06.18.16.18.02 0 .06-.02.08-.02 0 0 .28-.12.46-.18.02-.02.04-.02.06-.02.14 0 .24.22.24.32v2.46c0 .12.12.22.26.22.2 0 .34-.1.34-.22v-2.78c0-.26.1-.4.2-.44l1.22-.5c.02 0 .06-.02.08-.02.16 0 .26.24.26.36v2.5c0 .12.12.22.26.22.22 0 .34-.1.34-.22v-2.84c0-.16.08-.4.22-.46s.56-.22.56-.22c.14-.06.24-.22.24-.34v-1.42c0-.1-.06-.16-.14-.16-.04 0-.06 0-.1.02l-.52.2c-.12 0-.26-.12-.26-.36v-1.86c0-.14.1-.52.26-.58l.52-.2zm-1.38 3.26c-.12.4-1.06.8-1.52.8-.12 0-.22-.04-.24-.1-.04-.08-.06-.52-.06-1 0-.62.02-1.32.06-1.48.04-.34.96-.76 1.46-.76.14 0 .26.04.3.12.04.1.08.6.08 1.14 0 .54-.04 1.1-.08 1.28zm7.38 1.74c.14-.06.24-.22.24-.34v-1.42c0-.1-.06-.16-.14-.16-.04 0-.06 0-.1.02 0 0-.4.16-.5.18-.14 0-.28-.1-.28-.26v-2.44c0-.12-.12-.22-.28-.22-.2 0-.32.1-.32.22v2.6c-.02.2-.08.46-.26.58-.24.14-.92.42-1.26.5-.18 0-.24-.24-.24-.4v-2.4c0-.12-.14-.22-.28-.22-.2 0-.32.1-.32.22v2.7c0 .28-.12.48-.24.54-.12.06-.52.22-.52.22-.14.04-.24.2-.24.32v1.42c0 .12.06.18.16.18.02 0 .06-.02.08-.02 0 0 .3-.12.44-.2.02 0 .04-.02.06-.02.14 0 .26.2.26.36v1.98c0 .22-.1.4-.22.46-.12.04-.54.22-.54.22-.14.04-.24.2-.24.32V30c0 .12.06.18.16.18.02 0 .06-.02.08-.02 0 0 .28-.12.46-.18.02-.02.04-.02.06-.02.14 0 .24.22.24.32v2.46c0 .12.12.22.26.22.2 0 .34-.1.34-.22v-2.78c0-.26.1-.4.2-.44l1.22-.5c.02 0 .06-.02.08-.02.16 0 .26.24.26.36v2.5c0 .12.12.22.26.22.22 0 .34-.1.34-.22v-2.84c0-.16.08-.4.22-.46s.56-.22.56-.22c.14-.06.24-.22.24-.34v-1.42c0-.1-.06-.16-.14-.16-.04 0-.06 0-.1.02l-.52.2c-.12 0-.26-.12-.26-.36v-1.86c0-.14.1-.52.26-.58l.52-.2zm-1.38 3.26c-.12.4-1.06.8-1.52.8-.12 0-.22-.04-.24-.1-.04-.08-.06-.52-.06-1 0-.62.02-1.32.06-1.48.04-.34.96-.76 1.46-.76.14 0 .26.04.3.12.04.1.08.6.08 1.14 0 .54-.04 1.1-.08 1.28zm7.38-14.26c.14-.06.24-.22.24-.34v-1.42c0-.1-.06-.16-.14-.16-.04 0-.06 0-.1.02 0 0-.4.16-.5.18-.14 0-.28-.1-.28-.26V8.22c0-.12-.12-.22-.28-.22-.2 0-.32.1-.32.22v2.6c-.02.2-.08.46-.26.58-.24.14-.92.42-1.26.5-.18 0-.24-.24-.24-.4V9.1c0-.12-.14-.22-.28-.22-.2 0-.32.1-.32.22v2.7c0 .28-.12.48-.24.54-.12.06-.52.22-.52.22-.14.04-.24.2-.24.32v1.42c0 .12.06.18.16.18.02 0 .06-.02.08-.02 0 0 .3-.12.44-.2.02 0 .04-.02.06-.02.14 0 .26.2.26.36v1.98c0 .22-.1.4-.22.46-.12.04-.54.22-.54.22-.14.04-.24.2-.24.32V19c0 .12.06.18.16.18.02 0 .06-.02.08-.02 0 0 .28-.12.46-.18.02-.02.04-.02.06-.02.14 0 .24.22.24.32v2.46c0 .12.12.22.26.22.2 0 .34-.1.34-.22v-2.78c0-.26.1-.4.2-.44l1.22-.5c.02 0 .06-.02.08-.02.16 0 .26.24.26.36v2.5c0 .12.12.22.26.22.22 0 .34-.1.34-.22v-2.84c0-.16.08-.4.22-.46s.56-.22.56-.22c.14-.06.24-.22.24-.34v-1.42c0-.1-.06-.16-.14-.16-.04 0-.06 0-.1.02l-.52.2c-.12 0-.26-.12-.26-.36v-1.86c0-.14.1-.52.26-.58l.52-.2zm-1.38 3.26c-.12.4-1.06.8-1.52.8-.12 0-.22-.04-.24-.1-.04-.08-.06-.52-.06-1 0-.62.02-1.32.06-1.48.04-.34.96-.76 1.46-.76.14 0 .26.04.3.12.04.1.08.6.08 1.14 0 .54-.04 1.1-.08 1.28zm7.38 5.74c.14-.06.24-.22.24-.34v-1.42c0-.1-.06-.16-.14-.16-.04 0-.06 0-.1.02 0 0-.4.16-.5.18-.14 0-.28-.1-.28-.26v-2.44c0-.12-.12-.22-.28-.22-.2 0-.32.1-.32.22v2.6c-.02.2-.08.46-.26.58-.24.14-.92.42-1.26.5-.18 0-.24-.24-.24-.4v-2.4c0-.12-.14-.22-.28-.22-.2 0-.32.1-.32.22v2.7c0 .28-.12.48-.24.54-.12.06-.52.22-.52.22-.14.04-.24.2-.24.32v1.42c0 .12.06.18.16.18.02 0 .06-.02.08-.02 0 0 .3-.12.44-.2.02 0 .04-.02.06-.02.14 0 .26.2.26.36v1.98c0 .22-.1.4-.22.46-.12.04-.54.22-.54.22-.14.04-.24.2-.24.32V28c0 .12.06.18.16.18.02 0 .06-.02.08-.02 0 0 .28-.12.46-.18.02-.02.04-.02.06-.02.14 0 .24.22.24.32v2.46c0 .12.12.22.26.22.2 0 .34-.1.34-.22v-2.78c0-.26.1-.4.2-.44l1.22-.5c.02 0 .06-.02.08-.02.16 0 .26.24.26.36v2.5c0 .12.12.22.26.22.22 0 .34-.1.34-.22v-2.84c0-.16.08-.4.22-.46s.56-.22.56-.22c.14-.06.24-.22.24-.34v-1.42c0-.1-.06-.16-.14-.16-.04 0-.06 0-.1.02l-.52.2c-.12 0-.26-.12-.26-.36v-1.86c0-.14.1-.52.26-.58l.52-.2zm-1.38 3.26c-.12.4-1.06.8-1.52.8-.12 0-.22-.04-.24-.1-.04-.08-.06-.52-.06-1 0-.62.02-1.32.06-1.48.04-.34.96-.76 1.46-.76.14 0 .26.04.3.12.04.1.08.6.08 1.14 0 .54-.04 1.1-.08 1.28z"
                                            class="fill" fill="#000"></path>
                                    </g>
                                </svg>