<svg xmlns="http://www.w3.org/2000/svg" viewBox="0 0 42 42"
                                    height="42" width="42">
                                    <g fill-rule="evenodd" fill="none">
                                        <path d="M0 0h42v42H0z"></path>
                                        <path fill="#000" class="fill"
                                            d="M23.46 7.79c.594 0 1.08.486 1.08 1.476 0 1.242-.594 2.394-1.998 3.798-.288.288-.72.702-1.134 1.062-.126.108-.198.09-.234-.144a11.628 11.628 0 0 1-.108-1.656c0-2.808 1.296-4.536 2.394-4.536zm-.72 15.12c-.036-.216-.018-.27.198-.252a2.927 2.927 0 0 1 2.664 2.934c0 1.134-.684 2.052-1.692 2.556-.216.108-.252.108-.288-.108l-.882-5.13zm-1.242-2.862c.054.342.054.324-.27.432-1.584.54-2.61 1.962-2.61 3.492 0 1.62.846 2.772 2.07 3.186a1.7 1.7 0 0 0 .486.108c.144 0 .216-.09.216-.198 0-.126-.144-.18-.27-.234-.756-.324-1.296-1.098-1.296-1.926 0-1.026.702-1.8 1.8-2.106.288-.072.324-.054.36.144l.9 5.364c.036.198.018.198-.252.252a5.67 5.67 0 0 1-1.008.09c-3.15 0-5.184-1.746-5.184-4.248 0-1.062.18-2.484 1.674-4.176 1.08-1.206 1.908-1.872 2.754-2.556.18-.144.216-.126.252.072l.378 2.304zm.27-2.754c-.036-.216 0-.234.108-.342.288-.27.666-.648 1.008-1.026 1.512-1.656 2.412-3.798 2.412-5.832 0-1.566-.432-3.114-1.17-4.194-.27-.396-.738-.9-.936-.9-.252 0-.81.468-1.17.864-1.332 1.476-1.764 3.726-1.764 5.598 0 1.044.126 2.214.252 2.952.036.216.054.252-.162.432-1.152.954-2.394 2.052-3.33 3.204C15.774 19.598 15 21.272 15 23.198c0 3.132 2.142 6.102 6.552 6.102a6.79 6.79 0 0 0 1.242-.108c.198-.036.234-.054.27.162.216 1.206.486 2.772.486 3.618 0 2.664-1.8 2.988-2.862 2.988-.972 0-1.44-.288-1.44-.522 0-.126.162-.18.576-.306.558-.162 1.206-.648 1.206-1.692 0-.99-.63-1.836-1.728-1.836-1.206 0-1.926.954-1.926 2.07 0 1.17.702 2.934 3.42 2.934 1.206 0 3.546-.54 3.546-3.6 0-1.026-.324-2.736-.522-3.852-.036-.216-.018-.198.234-.306 1.818-.72 3.024-2.25 3.024-4.284 0-2.304-1.692-4.338-4.338-4.338-.468 0-.468 0-.522-.324l-.45-2.61z">
                                        </path>
                                    </g>
                                </svg>