<svg xmlns="http://www.w3.org/2000/svg" viewBox="0 0 38 42" height="42"
                    width="38">
                    <g fill-rule="evenodd" fill="none">
                        <path d="M0 0h38v42H0z"></path>
                        <path fill="#000" class="fill"
                            d="M18.85 31V9h-.792v22h.792zm4.224-22h-2.75v22h2.75V9zm-6.952 7.04c-.616 0-1.1.484-1.1 1.1 0 .594.484 1.1 1.1 1.1.594 0 1.1-.506 1.1-1.1 0-.616-.506-1.1-1.1-1.1zm0 5.544c-.616 0-1.1.484-1.1 1.1 0 .616.484 1.1 1.1 1.1.594 0 1.1-.484 1.1-1.1 0-.616-.506-1.1-1.1-1.1z">
                        </path>
                    </g>
                </svg>