<?xml version="1.0" encoding="UTF-8" standalone="no"?>
<!-- Created with Inkscape (http://www.inkscape.org/) -->

<svg viewBox="0 0 69 42" height="42" width="69"
    xmlns="http://www.w3.org/2000/svg">
    <g fill-rule="evenodd" fill="none">
        <path d="M0 0h69v42H0z"></path>
        <path
            d="M26 14.865a7.5 7.5 0 0 1 0 13.27V30c0 .55.448 1 1 1h4v1h-4c-1.105 0-2-.9-2-2v-1.427a7.5 7.5 0 1 1 0-14.146V13c0-1.11.895-2 2-2h4v1h-4c-.552 0-1 .45-1 1v1.865zM53 30v-4h1v4c0 1.1-.896 2-2 2h-4v-1h4c.552 0 1-.45 1-1zm-1-19c1.104 0 2 .89 2 2v4h-1v-4c0-.55-.448-1-1-1h-4v-1h4zM22.5 28a6.5 6.5 0 1 0 0-13 6.5 6.5 0 0 0 0 13zm2.977-6.99c.288 0 .521.22.521.49s-.233.49-.521.49h-2.489v2.49c0 .28-.218.52-.488.52s-.488-.24-.488-.52v-2.49h-2.489c-.288 0-.521-.22-.521-.49s.233-.49.521-.49h2.489v-2.49c0-.29.218-.52.488-.52s.488.23.488.52v2.49h2.489zM44.5 21c.275 0 .5.22.5.5s-.225.5-.5.5h-8.155l2.511 2.15c.195.2.195.51 0 .71a.504.504 0 0 1-.702 0l-3.451-2.96c-.019-.02-.043-.03-.06-.04a.497.497 0 0 1-.144-.36.497.497 0 0 1 .144-.36c.016-.01.037-.02.055-.03l3.456-2.97a.504.504 0 0 1 .702 0c.195.2.195.51 0 .7L36.345 21H44.5z"
            fill="#373A39" class="fill"></path>
    </g>
</svg>