<svg xmlns="http://www.w3.org/2000/svg" height="42" width="44">
                                    <g fill-rule="nonzero" class="fill" fill="#000">
                                        <path
                                            d="M34.468 15c.3 0 .532.237.532.541V32.46a.53.53 0 0 1-.532.541.53.53 0 0 1-.532-.541v-5.076H10.064v5.076a.53.53 0 0 1-.532.541.53.53 0 0 1-.532-.541V15.54A.53.53 0 0 1 9.532 15c.3 0 .532.237.532.541v5.076h23.872V15.54a.53.53 0 0 1 .532-.541z">
                                        </path>
                                        <path
                                            d="M24 17v-.469h-.04c-.406 0-.658-.025-.756-.075-.098-.05-.146-.184-.146-.398v-.806h1.21v-.562h-1.21v-2.73c.003-.832.02-1.5.053-2.001h-.43l-3.403 4.731v.562h2.813v.806c0 .214-.048.347-.144.398-.096.05-.348.075-.755.075h-.112V17H24zm-1.91-2.31H19.89l2.202-3.032v3.032z">
                                        </path>
                                    </g>
                                </svg>