<svg viewBox="0 0 59 42" height="42" width="59"
                    xmlns="http://www.w3.org/2000/svg">
                    <g fill-rule="evenodd" fill="none">
                        <path d="M0 0h59v42H0z"></path>
                        <path
                            d="M43 30v-4h1v4c0 1.1-.896 2-2 2h-4v-1h4c.552 0 1-.45 1-1zM15 17v-4c0-1.11.895-2 2-2h4v1h-4c-.552 0-1 .45-1 1v4h-1zm1 13c0 .55.448 1 1 1h4v1h-4c-1.105 0-2-.9-2-2v-4h1v4zm26-19c1.104 0 2 .89 2 2v4h-1v-4c0-.55-.448-1-1-1h-4v-1h4zm-9.523 10.01c.288 0 .521.22.521.49s-.233.49-.521.49h-5.954c-.288 0-.521-.22-.521-.49s.233-.49.521-.49h5.954z"
                            fill="#373A39" class="fill"></path>
                    </g>
                </svg>