<svg xmlns="http://www.w3.org/2000/svg" fill="none" viewBox="0 0 48 49"
                    height="49" width="48">
                    <path fill="#000" class="fill"
                        d="M31.875 13.333h-15.75c-.725 0-1.313.597-1.313 1.334v18.666c0 .737.588 1.334 1.313 1.334h15.75c.725 0 1.313-.597 1.313-1.334V14.667c0-.737-.588-1.334-1.313-1.334zM16.125 12c-1.45 0-2.625 1.194-2.625 2.667v18.666c0 1.473 1.175 2.667 2.625 2.667h15.75c1.45 0 2.625-1.194 2.625-2.667V14.667c0-1.473-1.175-2.667-2.625-2.667h-15.75z"
                        clip-rule="evenodd" fill-rule="evenodd"></path>
                    <path fill="#000" class="fill"
                        d="M12.8 23.294H10v-1.412h2.8v1.412zm7 0h-5.6v-1.412h5.6v1.412zm7 0h-5.6v-1.412h5.6v1.412zm7 0h-5.6v-1.412h5.6v1.412zm4.2 0h-2.8v-1.412H38v1.412zm-21 5.647l4.9-4.235v8.47L17 28.941z"
                        clip-rule="evenodd" fill-rule="evenodd"></path>
                    <path fill="#000" class="fill"
                        d="M28.9 18.353h-7V16.94h7c1.16 0 2.1.948 2.1 2.118v8.47c0 1.17-.94 2.118-2.1 2.118h-7v-1.412h7c.387 0 .7-.316.7-.706v-8.47a.703.703 0 0 0-.7-.706z"
                        clip-rule="evenodd" fill-rule="evenodd"></path>
                </svg>