<svg xmlns="http://www.w3.org/2000/svg" viewBox="0 0 39 42"
                                    height="42" width="39">
                                    <g fill-rule="evenodd" fill="none">
                                        <path d="M0 0h39v42H0z"></path>
                                        <path fill="#000" class="fill"
                                            d="M21.88 16.48V12.2c0-.16-.02-.34-.24-.34-.18 0-.28.04-.4.18l-1.9 2.3c-.08.1-.18.22-.18.46v1.68h-2.7c1.6-1.36 4.8-5.9 4.86-6.12 0-.04.02-.06.02-.1 0-.16-.14-.28-.3-.28-.18 0-1 .04-1.36.04-.36 0-1.26-.04-1.42-.04-.18 0-.46.06-.46.38 0 2.48-1.96 5.26-2.56 6.1l-.12.16c0 .02-.02.04-.02.06a.52.52 0 0 0-.06.22c0 .2.16.34.4.34h3.72v1.26c0 .54-.44.7-.8.7-.32 0-.46.18-.46.38s.08.42.38.42h4.26c.2 0 .4-.14.4-.42 0-.28-.24-.4-.44-.4s-.62-.12-.62-.76v-1.18h1.46c.2 0 .3-.14.3-.38s-.08-.38-.3-.38h-1.46zm0 10V22.2c0-.16-.02-.34-.24-.34-.18 0-.28.04-.4.18l-1.9 2.3c-.08.1-.18.22-.18.46v1.68h-2.7c1.6-1.36 4.8-5.9 4.86-6.12 0-.04.02-.06.02-.1 0-.16-.14-.28-.3-.28-.18 0-1 .04-1.36.04-.36 0-1.26-.04-1.42-.04-.18 0-.46.06-.46.38 0 2.48-1.96 5.26-2.56 6.1l-.12.16c0 .02-.02.04-.02.06a.52.52 0 0 0-.06.22c0 .2.16.34.4.34h3.72v1.26c0 .54-.44.7-.8.7-.32 0-.46.18-.46.38s.08.42.38.42h4.26c.2 0 .4-.14.4-.42 0-.28-.24-.4-.44-.4s-.62-.12-.62-.76v-1.18h1.46c.2 0 .3-.14.3-.38s-.08-.38-.3-.38h-1.46z">
                                        </path>
                                    </g>
                                </svg>