<?xml version="1.0" encoding="UTF-8" standalone="no"?>
<!-- Created with Inkscape (http://www.inkscape.org/) -->

<svg
    viewBox="0 0 36 42" height="42" width="36" xmlns="http://www.w3.org/2000/svg">
    <g fill-rule="evenodd" fill="none">
        <path d="M0 0h36v42H0z"></path>
        <path d="M10 13h16v16H10z"></path>
        <path
            d="M14 19.667c-.733 0-1.333.6-1.333 1.333s.6 1.333 1.333 1.333 1.333-.6 1.333-1.333-.6-1.333-1.333-1.333zm8 0c-.733 0-1.333.6-1.333 1.333s.6 1.333 1.333 1.333 1.333-.6 1.333-1.333-.6-1.333-1.333-1.333zm-4 0c-.733 0-1.333.6-1.333 1.333s.6 1.333 1.333 1.333 1.333-.6 1.333-1.333-.6-1.333-1.333-1.333z"
            fill-rule="nonzero" fill="#000" class="fill"></path>
    </g>
</svg>