<?xml version="1.0" encoding="UTF-8" standalone="no"?>
<svg viewBox="0 0 36 42" height="42" width="36"
                            xmlns="http://www.w3.org/2000/svg">
                            <g fill-rule="evenodd" fill="none">
                                <path d="M0 0h36v42H0z"></path>
                                <path
                                    d="M13.593 27c-.86 0-1.556-.67-1.556-1.5s.696-1.5 1.556-1.5c.859 0 1.555.67 1.555 1.5s-.696 1.5-1.555 1.5zm.061-9.01c-.027 0-.053.01-.081.01-.85-.01-1.536-.68-1.536-1.5 0-.83.696-1.5 1.556-1.5.859 0 1.555.67 1.555 1.5 0 .81-.664 1.46-1.494 1.49zm11.093 8.07L17.849 21l6.901-5.08a.484.484 0 0 0 .192-.68.547.547 0 0 0-.716-.19l-7.23 5.32-2.241-1.65c.845-.41 1.43-1.25 1.43-2.22 0-1.38-1.161-2.5-2.592-2.5C12.161 14 11 15.12 11 16.5c0 1.32 1.061 2.38 2.402 2.48L16.144 21l-2.753 2.02C12.055 23.12 11 24.19 11 25.5c0 1.38 1.161 2.5 2.593 2.5 1.431 0 2.592-1.12 2.592-2.5 0-.98-.588-1.82-1.436-2.23l2.247-1.65 7.226 5.31c.251.14.572.06.716-.18a.495.495 0 0 0-.191-.69z"
                                    class="fill" fill="#373A39"></path>
                            </g>
                        </svg>