<?xml version="1.0" encoding="UTF-8" standalone="no"?>
<!-- Created with Inkscape (http://www.inkscape.org/) -->

<svg xmlns="http://www.w3.org/2000/svg" viewBox="0 0 36 42"
    height="42" width="36">
    <g fill-rule="evenodd" fill="none">
        <path d="M0 0h36v42H0z"></path>
        <path fill="#000" class="fill"
            d="M22.26 17.21C21.67 15.35 19.997 14 18 14c-2.174 0-3.987 1.59-4.408 3.71-2.05.43-3.592 2.3-3.592 4.55 0 2.39 1.753 4.33 4 4.59v-1.03c-1.694-.26-3-1.74-3-3.56 0-2 1.567-3.62 3.5-3.62 0-1.99 1.567-3.61 3.5-3.61 1.77 0 3.216 1.36 3.452 3.12C23.427 18.26 25 19.93 25 22c0 1.48-.814 2.75-2 3.39v1.16c1.755-.72 3-2.48 3-4.55 0-2.35-1.603-4.31-3.74-4.79zm-1.093 7.77L19 27.22v-7.03c0-.28-.224-.51-.5-.51s-.5.23-.5.51v7.03l-2.167-2.24a.49.49 0 0 0-.69 0c-.19.2-.19.52 0 .72l2.954 3.05c.016.02.025.05.046.07.096.1.223.15.35.14.003.01.005.01.007.01s.004-.01.006-.01a.44.44 0 0 0 .35-.14c.023-.02.033-.05.05-.08l2.95-3.04c.192-.2.192-.52 0-.72a.49.49 0 0 0-.69 0z">
        </path>
    </g>
</svg>