<?xml version="1.0" encoding="UTF-8" standalone="no"?>
<!-- Created with Inkscape (http://www.inkscape.org/) -->

<svg
    inline="" xmlns="http://www.w3.org/2000/svg" width="18" height="18"
    viewBox="0 0 18 18">
    <path fill="#268FF4" fill-rule="evenodd"
        d="M9,0 C13.97025,0 18,3.52125 18,7.875 C18,12.22875 13.97025,15.75 9,15.75 C8.654625,15.75 8.317125,15.7275 7.981875,15.69375 L3.375,18 L3.375,14.0175 C1.319625,12.5775 0,10.36125 0,7.875 C0,3.52125 4.02975,0 9,0 Z M9.018,2.808 C7.996,2.808 7.184,3.102 6.596,3.704 C5.994,4.292 5.7,5.09 5.7,6.112 L7.184,6.112 C7.184,5.496 7.31,5.006 7.562,4.67 C7.842,4.278 8.304,4.082 8.934,4.082 C9.438,4.082 9.83,4.222 10.11,4.502 C10.376,4.782 10.516,5.16 10.516,5.65 C10.516,6.014 10.39,6.35 10.138,6.672 L9.9,6.938 C9.032,7.708 8.5,8.282 8.304,8.674 C8.122,9.038 8.038,9.486 8.038,10.004 L8.038,10.242 L9.536,10.242 L9.536,10.004 C9.536,9.654 9.606,9.346 9.76,9.066 C9.886,8.814 10.082,8.576 10.334,8.352 C11.006,7.778 11.398,7.414 11.524,7.26 C11.86,6.812 12.042,6.238 12.042,5.552 C12.042,4.712 11.762,4.04 11.216,3.55 C10.656,3.046 9.928,2.808 9.018,2.808 Z M8.78,10.998 C8.486,10.998 8.248,11.082 8.066,11.278 C7.856,11.46 7.758,11.698 7.758,11.992 C7.758,12.272 7.856,12.51 8.066,12.706 C8.248,12.902 8.486,13 8.78,13 C9.06,13 9.312,12.902 9.522,12.72 C9.718,12.524 9.816,12.286 9.816,11.992 C9.816,11.698 9.718,11.46 9.522,11.278 C9.326,11.082 9.074,10.998 8.78,10.998 Z">
    </path>
</svg>