<?xml version="1.0" encoding="UTF-8" standalone="no"?>
<!-- Created with Inkscape (http://www.inkscape.org/) -->

<svg viewBox="0 0 40 42" height="42" width="40"
                            xmlns="http://www.w3.org/2000/svg">
                            <g fill-rule="evenodd" fill="none">
                                <path d="M0 0h40v42H0z"></path>
                                <path
                                    d="M22.998 14H22v6.06c-.604.096-1.467.353-2.543.988a7.744 7.744 0 0 0-.457.295V14h-2v8.005c0 .55-.443.995-.999.995h-1.002c-.552 0-.999-.456-.999-.995V14h-.99c-1.117 0-2.01.895-2.01 2.01v9.98c0 1.117.895 2.01 2.01 2.01h3.24c.126.353.296.69.506 1h-3.747A3.003 3.003 0 0 1 10 25.99v-9.98A3.003 3.003 0 0 1 13.01 13h9.988v1zM16 26.222c-.01.182-.01.363 0 .543V28h-1v-5h1v3.222zm13.999-8.912l-.692.69-3.309-2.54v9.04h-.006c.001 1.32-.927 2.8-2.47 3.72-2.041 1.22-4.378.99-5.219-.52-.842-1.5.131-3.71 2.171-4.93 1.626-.96 3.428-1 4.524-.22v-7.86h-.001.001V14h1l4.001 3.31z"
                                    fill-rule="nonzero" fill="#000" class="fill"></path>
                            </g>
                        </svg>