<?xml version="1.0" encoding="UTF-8" standalone="no"?>
<!-- Created with Inkscape (http://www.inkscape.org/) -->

<svg
    xmlns="http://www.w3.org/2000/svg" viewBox="0 0 16 16" height="16" width="16"
    fill="currentColor">
    <path fill-rule="evenodd" class="fill"
        d="M9 1H7v8.005c0 .55-.443.995-1 .995H5c-.553 0-1-.456-1-.995V1h-.99C1.892 1 1 1.895 1 3.01v9.98C1 14.108 1.895 15 3.01 15h9.98c1.117 0 2.01-.895 2.01-2.01V3.01C15 1.892 14.105 1 12.99 1H12v8.005c0 .55-.443.995-1 .995h-1c-.553 0-1-.456-1-.995V1zM0 3.01A3.003 3.003 0 0 1 3.01 0h9.98A3.003 3.003 0 0 1 16 3.01v9.98A3.003 3.003 0 0 1 12.99 16H3.01A3.003 3.003 0 0 1 0 12.99V3.01zM5 10h1v5H5v-5zm5 0h1v5h-1v-5z">
    </path>
</svg>