<?xml version="1.0" encoding="UTF-8" standalone="no"?>
<!-- Created with Inkscape (http://www.inkscape.org/) -->

<svg viewBox="0 0 36 42" height="42" width="36"
                            xmlns="http://www.w3.org/2000/svg">
                            <g fill-rule="evenodd" fill="none">
                                <path d="M0 0h36v42H0z"></path>
                                <path
                                    d="M19.323 20l-3.646 3.65-2-1.65-.674.68 2 1.64.674.68.066-.07.08.07.673-.68-.08-.06 3.58-3.58-.673-.68zM22 27.5c0 .28-.224.5-.5.5h-10c-.276 0-.5-.22-.5-.5v-10c0-.28.224-.5.5-.5h10c.276 0 .5.22.5.5v10zM22 16H11c-.552 0-1 .45-1 1v11c0 .55.448 1 1 1h11c.552 0 1-.45 1-1V17c0-.55-.448-1-1-1zm3-3H15c-.552 0-1 .45-1 1v1h1v-.5c0-.28.224-.5.5-.5h9c.276 0 .5.22.5.5v9c0 .28-.224.5-.5.5H24v1h1c.552 0 1-.45 1-1V14c0-.55-.448-1-1-1z"
                                    class="fill" fill="#373A39"></path>
                            </g>
                        </svg>