<?xml version="1.0" encoding="UTF-8" standalone="no"?>
<!-- Created with Inkscape (http://www.inkscape.org/) -->

<svg xmlns="http://www.w3.org/2000/svg" viewBox="0 0 36 42" height="42"
                            width="36">
                            <g fill-rule="evenodd" fill="none">
                                <path d="M0 0h36v42H0z"></path>
                                <path fill="#000" class="fill"
                                    d="M19.5 19h-6c-.276 0-.5.22-.5.5s.224.5.5.5h6c.276 0 .5-.22.5-.5s-.224-.5-.5-.5zm-3 6c-3.038 0-5.5-2.46-5.5-5.5s2.462-5.5 5.5-5.5 5.5 2.46 5.5 5.5-2.462 5.5-5.5 5.5zm9.357 3.18l-4.44-4.44A6.468 6.468 0 0 0 23 19.5a6.5 6.5 0 1 0-2.256 4.92l4.44 4.44c.186.18.487.18.673 0a.484.484 0 0 0 0-.68z">
                                </path>
                            </g>
                        </svg>